<svg width="189" height="24" viewBox="0 0 189 24" fill="none" xmlns="http://www.w3.org/2000/svg">
<path d="M22.6673 12.3963C22.6836 12.3963 17.5089 9.47585 17.4937 9.38996C17.3767 8.76921 17.2292 7.74417 16.5154 7.21391C15.901 6.76152 11.7537 4.89469 11.7455 4.87522C10.9819 3.74557 10.3052 2.56189 9.72102 1.33398C9.16624 1.74264 8.71502 2.27079 8.40231 2.87753C8.08959 3.48427 7.92377 4.15331 7.91769 4.83285C5.8804 5.11861 3.96827 5.96591 2.40474 7.27575C6.45959 6.36639 7.62748 7.20474 7.62748 7.20474C6.29993 7.43619 5.02072 7.88124 3.84178 8.52182C2.11336 9.4518 1.33398 10.5685 1.33398 10.5685C1.33398 10.5685 5.25893 9.47013 8.2711 10.5387C6.86644 10.7326 5.56074 11.3573 4.54158 12.323C10.7848 13.0801 13.8636 18.3828 15.1591 22.6673C15.6354 15.0465 11.7584 12.1524 11.7584 12.1524C12.8841 12.2314 14.3001 13.0881 15.2059 14.3628C17.9676 14.0582 19.5053 14.8862 19.4924 14.8862C19.462 14.8862 20.9856 14.4281 22.0599 13.9436C21.9675 13.8073 21.579 13.3343 21.3578 13.0698C21.3882 13.0721 22.2378 13.0228 22.6673 12.3963ZM14.0438 9.02346C14.1047 9.00857 15.4575 8.63635 15.8437 8.77951C16.1947 8.90893 16.2017 9.88701 16.2017 9.88701C16.2017 9.88701 15.4001 9.99696 14.0438 9.02346Z" fill="#DFDFDF"/>
<path d="M185 20.2376H185.798C185.892 20.258 185.987 20.2311 186.069 20.1614C186.15 20.0916 186.212 19.9833 186.246 19.8544C186.309 19.47 186.298 19.01 186.298 18.6795V14.682C186.29 14.245 186.343 13.8101 186.456 13.4049C186.53 13.0788 186.649 12.7787 186.807 12.5237C186.939 12.2976 187.093 12.0998 187.263 11.9362C187.114 11.8018 186.911 11.6336 186.798 11.4381C186.648 11.182 186.532 10.8875 186.456 10.5697C186.346 10.1635 186.292 9.72933 186.298 9.29256V5.32068C186.298 5.01112 186.335 4.46759 186.298 4.04355C186.202 3.7115 186.018 3.74981 185.842 3.73704H185V2.00014H186.351C186.552 1.99681 186.752 2.05408 186.938 2.16835C187.124 2.28262 187.291 2.45144 187.43 2.66425C187.714 3.19081 187.86 3.84715 187.842 4.51609V8.75617C187.829 9.34875 187.926 9.93541 188.123 10.4548C188.223 10.6596 188.354 10.8282 188.506 10.9478C188.658 11.0673 188.827 11.1346 189 11.1444V12.8685C188.828 12.8601 188.657 12.9155 188.504 13.0294C188.35 13.1433 188.219 13.3121 188.123 13.5199C187.917 14.0296 187.817 14.6149 187.833 15.2057V19.4968C187.85 20.1539 187.704 20.7977 187.421 21.3104C187.285 21.5262 187.119 21.6989 186.935 21.8175C186.751 21.9362 186.552 21.9983 186.351 22H185V20.2376Z" fill="#D34037"/>
<path d="M111.6 8.448H114.416V9.92H111.6V16.8H109.888V9.92H108.192L108.576 8.448H109.888V7.856C109.888 5.92 110.976 4.768 112.848 4.768C113.696 4.768 114.384 5.008 114.976 5.424L114.24 6.672C113.872 6.384 113.472 6.224 112.976 6.224C112.144 6.224 111.6 6.752 111.6 7.776V8.448ZM117.805 10.128C118.573 8.64 119.853 8.32 120.941 8.32V10.064C119.517 9.968 117.821 10.496 117.821 12.768V16.8H116.109V8.448H117.757L117.805 10.128ZM126.291 17.008C123.987 17.008 121.939 15.376 121.939 12.624C121.939 9.856 123.971 8.224 126.307 8.224C128.611 8.224 130.643 9.84 130.643 12.624C130.643 15.36 128.627 17.008 126.291 17.008ZM126.291 15.488C127.651 15.488 128.883 14.416 128.883 12.608C128.883 10.816 127.699 9.744 126.307 9.744C124.931 9.744 123.699 10.816 123.699 12.624C123.699 14.416 124.899 15.488 126.291 15.488ZM137.183 8.224C138.943 8.224 140.191 9.456 140.191 11.856V16.8H138.479V12.064C138.479 10.528 137.775 9.824 136.575 9.824C135.423 9.824 134.415 10.56 134.415 12.384V16.8H132.703V8.448H134.351L134.399 9.728C135.023 8.72 135.967 8.224 137.183 8.224ZM148.004 16.256C147.364 16.736 146.644 17.008 145.796 17.008C144.244 17.008 143.06 16.224 143.06 14.224V9.92H141.364L141.748 8.448H143.06V6.144H144.772V8.448H147.844V9.92H144.772V14.208C144.772 15.056 145.268 15.456 145.972 15.456C146.5 15.456 146.884 15.296 147.332 14.96L148.004 16.256ZM158.588 16.8C158.524 16.384 158.46 16 158.412 15.6C157.868 16.48 156.94 16.976 155.756 16.976C154.028 16.976 152.812 16.048 152.812 14.4C152.812 12.784 154.156 11.744 156.46 11.744C157.244 11.744 157.852 11.856 158.348 11.984V11.568C158.348 10.384 157.58 9.696 156.316 9.696C155.34 9.696 154.62 10.016 153.964 10.48L153.292 9.2C154.14 8.624 155.164 8.24 156.428 8.24C158.62 8.24 159.98 9.456 159.98 11.552V14.4C159.98 15.312 160.06 16.144 160.156 16.8H158.588ZM156.124 15.616C157.42 15.616 158.332 14.848 158.348 13.536V13.168C157.868 13.024 157.324 12.944 156.652 12.944C155.148 12.944 154.492 13.52 154.492 14.368C154.492 15.104 155.084 15.616 156.124 15.616ZM167.157 8.224C169.621 8.224 171.093 10.176 171.093 12.608C171.093 15.072 169.477 17.008 167.125 17.008C165.749 17.008 164.773 16.416 164.165 15.456V20.096H162.453V8.448H164.101L164.149 9.872C164.757 8.864 165.781 8.224 167.157 8.224ZM166.725 15.472C168.197 15.472 169.333 14.368 169.333 12.624C169.333 10.848 168.277 9.76 166.821 9.76C165.349 9.76 164.165 10.832 164.165 12.624C164.165 14.416 165.253 15.472 166.725 15.472ZM177.86 8.224C180.324 8.224 181.796 10.176 181.796 12.608C181.796 15.072 180.18 17.008 177.828 17.008C176.452 17.008 175.476 16.416 174.868 15.456V20.096H173.156V8.448H174.804L174.852 9.872C175.46 8.864 176.484 8.224 177.86 8.224ZM177.428 15.472C178.9 15.472 180.036 14.368 180.036 12.624C180.036 10.848 178.98 9.76 177.524 9.76C176.052 9.76 174.868 10.832 174.868 12.624C174.868 14.416 175.956 15.472 177.428 15.472Z" fill="#DFDFDF"/>
<path d="M33.088 17.008C30.784 17.008 28.736 15.376 28.736 12.624C28.736 9.856 30.768 8.224 33.104 8.224C35.408 8.224 37.44 9.84 37.44 12.624C37.44 15.36 35.424 17.008 33.088 17.008ZM33.088 15.488C34.448 15.488 35.68 14.416 35.68 12.608C35.68 10.816 34.496 9.744 33.104 9.744C31.728 9.744 30.496 10.816 30.496 12.624C30.496 14.416 31.696 15.488 33.088 15.488ZM46.8313 8.448L42.6073 16.976H42.2713L38.0633 8.448H40.0312L42.4793 13.936L44.8953 8.448H46.8313ZM55.6144 12.592C55.6144 12.752 55.5984 12.896 55.5984 13.056H49.2304C49.3904 14.656 50.3504 15.488 51.8704 15.488C52.7984 15.488 53.5504 15.2 54.3024 14.464L55.2304 15.584C54.3184 16.576 53.1984 17.008 51.7424 17.008C49.1984 17.008 47.4704 15.36 47.4704 12.608C47.4704 9.92 49.3744 8.224 51.6624 8.224C53.9824 8.224 55.6144 9.824 55.6144 12.592ZM51.6464 9.664C50.4144 9.664 49.4864 10.528 49.2624 11.84H53.8384C53.6944 10.528 52.9264 9.664 51.6464 9.664ZM59.3209 10.128C60.0889 8.64 61.3689 8.32 62.4569 8.32V10.064C61.0329 9.968 59.3369 10.496 59.3369 12.768V16.8H57.6249V8.448H59.2729L59.3209 10.128ZM75.3486 8.448L71.9086 16.976H71.5726L69.3166 11.52L67.0606 16.976H66.7086L63.3006 8.448H65.1726L67.0126 13.536L69.1566 8.4H69.5086L71.7006 13.536L73.4926 8.448H75.3486ZM80.463 17.008C78.159 17.008 76.111 15.376 76.111 12.624C76.111 9.856 78.143 8.224 80.479 8.224C82.783 8.224 84.815 9.84 84.815 12.624C84.815 15.36 82.799 17.008 80.463 17.008ZM80.463 15.488C81.823 15.488 83.055 14.416 83.055 12.608C83.055 10.816 81.871 9.744 80.479 9.744C79.103 9.744 77.871 10.816 77.871 12.624C77.871 14.416 79.071 15.488 80.463 15.488ZM86.8749 4.976H88.5869V16.8H86.8749V4.976ZM93.5375 8.448H96.3535V9.92H93.5375V16.8H91.8255V9.92H90.1295L90.5135 8.448H91.8255V7.856C91.8255 5.92 92.9135 4.768 94.7855 4.768C95.6335 4.768 96.3215 5.008 96.9135 5.424L96.1775 6.672C95.8095 6.384 95.4095 6.224 94.9135 6.224C94.0815 6.224 93.5375 6.752 93.5375 7.776V8.448Z" fill="#DFDFDF"/>
<path d="M106 20.2376H105.002C104.885 20.258 104.766 20.2311 104.664 20.1614C104.563 20.0916 104.484 19.9833 104.443 19.8544C104.364 19.47 104.377 19.01 104.377 18.6795V14.682C104.388 14.245 104.321 13.8101 104.18 13.4049C104.088 13.0788 103.939 12.7787 103.741 12.5237C103.576 12.2976 103.384 12.0998 103.171 11.9362C103.357 11.8018 103.611 11.6336 103.752 11.4381C103.94 11.182 104.085 10.8875 104.18 10.5697C104.318 10.1635 104.385 9.72933 104.377 9.29256V5.32068C104.377 5.01112 104.331 4.46759 104.377 4.04355C104.498 3.7115 104.728 3.74981 104.947 3.73704H106V2.00014H104.311C104.059 1.99681 103.81 2.05408 103.578 2.16835C103.346 2.28262 103.136 2.45144 102.963 2.66425C102.608 3.19081 102.425 3.84715 102.447 4.51609V8.75617C102.463 9.34875 102.342 9.93541 102.096 10.4548C101.971 10.6596 101.807 10.8282 101.617 10.9478C101.427 11.0673 101.216 11.1346 101 11.1444V12.8685C101.215 12.8601 101.429 12.9155 101.62 13.0294C101.812 13.1433 101.976 13.3121 102.096 13.5199C102.354 14.0296 102.479 14.6149 102.458 15.2057V19.4968C102.437 20.1539 102.62 20.7977 102.974 21.3104C103.144 21.5262 103.351 21.6989 103.581 21.8175C103.811 21.9362 104.06 21.9983 104.311 22H106V20.2376Z" fill="#D34037"/>
</svg>
