<svg width="116" height="24" viewBox="0 0 116 24" fill="none" xmlns="http://www.w3.org/2000/svg">
<path d="M22.6673 12.3963C22.6836 12.3963 17.5089 9.47585 17.4937 9.38996C17.3767 8.76921 17.2292 7.74417 16.5154 7.21391C15.901 6.76152 11.7537 4.89469 11.7455 4.87522C10.9819 3.74557 10.3052 2.56189 9.72102 1.33398C9.16624 1.74264 8.71502 2.27079 8.40231 2.87753C8.08959 3.48427 7.92377 4.15331 7.91769 4.83285C5.8804 5.11861 3.96827 5.96591 2.40474 7.27575C6.45959 6.36639 7.62748 7.20474 7.62748 7.20474C6.29993 7.43619 5.02072 7.88124 3.84178 8.52182C2.11336 9.4518 1.33398 10.5685 1.33398 10.5685C1.33398 10.5685 5.25893 9.47013 8.2711 10.5387C6.86644 10.7326 5.56074 11.3573 4.54158 12.323C10.7848 13.0801 13.8636 18.3828 15.1591 22.6673C15.6354 15.0465 11.7584 12.1524 11.7584 12.1524C12.8841 12.2314 14.3001 13.0881 15.2059 14.3628C17.9676 14.0582 19.5053 14.8862 19.4924 14.8862C19.462 14.8862 20.9856 14.4281 22.0599 13.9436C21.9675 13.8073 21.579 13.3343 21.3578 13.0698C21.3882 13.0721 22.2378 13.0228 22.6673 12.3963ZM14.0438 9.02346C14.1047 9.00857 15.4575 8.63635 15.8437 8.77951C16.1947 8.90893 16.2017 9.88701 16.2017 9.88701C16.2017 9.88701 15.4001 9.99696 14.0438 9.02346Z" fill="#DFDFDF"/>
<path d="M112 20.2376H112.798C112.892 20.258 112.987 20.2311 113.069 20.1614C113.15 20.0916 113.212 19.9833 113.246 19.8544C113.309 19.47 113.298 19.01 113.298 18.6795V14.682C113.29 14.245 113.343 13.8101 113.456 13.4049C113.53 13.0788 113.649 12.7787 113.807 12.5237C113.939 12.2976 114.093 12.0998 114.263 11.9362C114.114 11.8018 113.911 11.6336 113.798 11.4381C113.648 11.182 113.532 10.8875 113.456 10.5697C113.346 10.1635 113.292 9.72933 113.298 9.29256V5.32068C113.298 5.01112 113.335 4.46759 113.298 4.04355C113.202 3.7115 113.018 3.74981 112.842 3.73704H112V2.00014H113.351C113.552 1.99681 113.752 2.05408 113.938 2.16835C114.124 2.28262 114.291 2.45144 114.43 2.66425C114.714 3.19081 114.86 3.84715 114.842 4.51609V8.75617C114.829 9.34875 114.926 9.93541 115.123 10.4548C115.223 10.6596 115.354 10.8282 115.506 10.9478C115.658 11.0673 115.827 11.1346 116 11.1444V12.8685C115.828 12.8601 115.657 12.9155 115.504 13.0294C115.35 13.1433 115.219 13.3121 115.123 13.5199C114.917 14.0296 114.817 14.6149 114.833 15.2057V19.4968C114.85 20.1539 114.704 20.7977 114.421 21.3104C114.285 21.5262 114.119 21.6989 113.935 21.8175C113.751 21.9362 113.552 21.9983 113.351 22H112V20.2376Z" fill="#D34037"/>
<path d="M38.6 8.448H41.416V9.92H38.6V16.8H36.888V9.92H35.192L35.576 8.448H36.888V7.856C36.888 5.92 37.976 4.768 39.848 4.768C40.696 4.768 41.384 5.008 41.976 5.424L41.24 6.672C40.872 6.384 40.472 6.224 39.976 6.224C39.144 6.224 38.6 6.752 38.6 7.776V8.448ZM44.8053 10.128C45.5733 8.64 46.8533 8.32 47.9413 8.32V10.064C46.5173 9.968 44.8213 10.496 44.8213 12.768V16.8H43.1093V8.448H44.7573L44.8053 10.128ZM53.2911 17.008C50.9871 17.008 48.9391 15.376 48.9391 12.624C48.9391 9.856 50.9711 8.224 53.3071 8.224C55.6111 8.224 57.6431 9.84 57.6431 12.624C57.6431 15.36 55.6271 17.008 53.2911 17.008ZM53.2911 15.488C54.6511 15.488 55.8831 14.416 55.8831 12.608C55.8831 10.816 54.6991 9.744 53.3071 9.744C51.9311 9.744 50.6991 10.816 50.6991 12.624C50.6991 14.416 51.8991 15.488 53.2911 15.488ZM64.183 8.224C65.943 8.224 67.191 9.456 67.191 11.856V16.8H65.479V12.064C65.479 10.528 64.775 9.824 63.575 9.824C62.423 9.824 61.415 10.56 61.415 12.384V16.8H59.703V8.448H61.351L61.399 9.728C62.023 8.72 62.967 8.224 64.183 8.224ZM75.0039 16.256C74.3639 16.736 73.6439 17.008 72.7959 17.008C71.2439 17.008 70.0599 16.224 70.0599 14.224V9.92H68.3639L68.7479 8.448H70.0599V6.144H71.7719V8.448H74.8439V9.92H71.7719V14.208C71.7719 15.056 72.2679 15.456 72.9719 15.456C73.4999 15.456 73.8839 15.296 74.3319 14.96L75.0039 16.256ZM85.5879 16.8C85.5239 16.384 85.4599 16 85.4119 15.6C84.8679 16.48 83.9399 16.976 82.7559 16.976C81.0279 16.976 79.8119 16.048 79.8119 14.4C79.8119 12.784 81.1559 11.744 83.4599 11.744C84.2439 11.744 84.8519 11.856 85.3479 11.984V11.568C85.3479 10.384 84.5799 9.696 83.3159 9.696C82.3399 9.696 81.6199 10.016 80.9639 10.48L80.2919 9.2C81.1399 8.624 82.1639 8.24 83.4279 8.24C85.6199 8.24 86.9799 9.456 86.9799 11.552V14.4C86.9799 15.312 87.0599 16.144 87.1559 16.8H85.5879ZM83.1239 15.616C84.4199 15.616 85.3319 14.848 85.3479 13.536V13.168C84.8679 13.024 84.3239 12.944 83.6519 12.944C82.1479 12.944 81.4919 13.52 81.4919 14.368C81.4919 15.104 82.0839 15.616 83.1239 15.616ZM94.157 8.224C96.621 8.224 98.093 10.176 98.093 12.608C98.093 15.072 96.477 17.008 94.125 17.008C92.749 17.008 91.773 16.416 91.165 15.456V20.096H89.453V8.448H91.101L91.149 9.872C91.757 8.864 92.781 8.224 94.157 8.224ZM93.725 15.472C95.197 15.472 96.333 14.368 96.333 12.624C96.333 10.848 95.277 9.76 93.821 9.76C92.349 9.76 91.165 10.832 91.165 12.624C91.165 14.416 92.253 15.472 93.725 15.472ZM104.86 8.224C107.324 8.224 108.796 10.176 108.796 12.608C108.796 15.072 107.18 17.008 104.828 17.008C103.452 17.008 102.476 16.416 101.868 15.456V20.096H100.156V8.448H101.804L101.852 9.872C102.46 8.864 103.484 8.224 104.86 8.224ZM104.428 15.472C105.9 15.472 107.036 14.368 107.036 12.624C107.036 10.848 105.98 9.76 104.524 9.76C103.052 9.76 101.868 10.832 101.868 12.624C101.868 14.416 102.956 15.472 104.428 15.472Z" fill="#DFDFDF"/>
<path d="M33 20.2376H32.0022C31.8854 20.258 31.7661 20.2311 31.6643 20.1614C31.5625 20.0916 31.4844 19.9833 31.443 19.8544C31.364 19.47 31.3772 19.01 31.3772 18.6795V14.682C31.3881 14.245 31.3209 13.8101 31.1798 13.4049C31.0879 13.0788 30.9385 12.7787 30.7412 12.5237C30.5759 12.2976 30.3839 12.0998 30.171 11.9362C30.3572 11.8018 30.6115 11.6336 30.7522 11.4381C30.9396 11.182 31.0846 10.8875 31.1798 10.5697C31.3179 10.1635 31.385 9.72933 31.3772 9.29256V5.32068C31.3772 5.01112 31.3313 4.46759 31.3772 4.04355C31.4978 3.7115 31.7281 3.74981 31.9474 3.73704H33V2.00014H31.3114C31.0595 1.99681 30.8096 2.05408 30.5776 2.16835C30.3455 2.28262 30.1362 2.45144 29.9627 2.66425C29.6078 3.19081 29.4252 3.84715 29.4474 4.51609V8.75617C29.4632 9.34875 29.342 9.93541 29.0965 10.4548C28.9711 10.6596 28.807 10.8282 28.617 10.9478C28.4269 11.0673 28.2158 11.1346 28 11.1444V12.8685C28.2152 12.8601 28.4286 12.9155 28.6204 13.0294C28.8122 13.1433 28.976 13.3121 29.0965 13.5199C29.3536 14.0296 29.4792 14.6149 29.4583 15.2057V19.4968C29.4372 20.1539 29.6202 20.7977 29.9737 21.3104C30.144 21.5262 30.3507 21.6989 30.5808 21.8175C30.811 21.9362 31.0597 21.9983 31.3114 22H33V20.2376Z" fill="#D34037"/>
</svg>
