<svg width="80" height="80" viewBox="0 0 80 80" fill="none" xmlns="http://www.w3.org/2000/svg">
<rect width="80" height="80" rx="40" fill="#404040"/>
<path d="M48 16L44.1862 25.6C41.7353 23.4077 37.8735 22.6335 34.4786 22.5499L32 16H48Z" fill="#303030"/>
<path d="M56 52.9152C54.8286 54.8093 53.3687 56.5298 51.7509 58.0937C53.0333 57.9636 54.2836 57.5371 55.4673 56.9178L50.2836 64L46.3428 49.1416C52.0444 49.1416 52.9125 41.7798 52.9125 41.7798L41.7189 44.0064L43.2109 55.2165L40.0764 57.4937L36.8977 55.2165L38.2589 44.0064L26.8138 41.5967C26.8138 41.5967 26.434 48.5922 33.5758 48.5922L29.4451 64L24.6658 57.019C25.7904 57.5829 26.9716 57.9708 28.18 58.0937C26.5943 56.5611 25.1591 54.8767 24 53.0261V41.6232C24.0025 36.6857 25.6967 32.8638 28.2984 30.1625C32.9494 26.0346 38.6535 25.2033 44.2072 25.7503C50.545 27.225 55.9162 32.312 55.9162 41.0714C55.9162 47.0547 55.9556 50.7127 56 52.9152Z" fill="#303030"/>
</svg>
