<svg width="40" height="40" viewBox="0 0 40 40" fill="none" xmlns="http://www.w3.org/2000/svg">
<g id="icon/braces" clip-path="url(#clip0_2720_3389)">
<g id="Vector">
<path d="M0 18.3898V21.6102C0.932498 21.6102 1.63535 21.7867 2.10856 22.1398C2.59569 22.4929 2.95059 23.1427 3.17328 24.089C3.39596 25.0353 3.50731 26.3771 3.50731 28.1144V32.5424C3.50731 37.5141 5.67154 40 10 40V36.928C8.55254 36.815 7.64092 36.4124 7.26513 35.7203C6.90327 35.0283 6.72234 33.3475 6.72234 30.678V27.6483C6.72234 25.346 6.49269 23.6158 6.0334 22.4576C5.57411 21.2853 4.77383 20.4661 3.63257 20C4.77383 19.5339 5.57411 18.7218 6.0334 17.5636C6.49269 16.4054 6.72234 14.6751 6.72234 12.3729V9.32203C6.72234 6.66667 6.90327 4.99294 7.26513 4.30085C7.64092 3.59463 8.55254 3.19209 10 3.09322V0C5.67154 0 3.50731 2.48588 3.50731 7.45763V11.8856C3.50731 13.7359 3.34029 15.2825 3.00626 16.5254C2.67223 17.7684 1.67015 18.3898 0 18.3898Z" fill="#DFDFDF"/>
<path d="M36.9937 23.4746C37.3278 22.2316 38.3299 21.6102 40 21.6102V18.3898C39.0675 18.3898 38.3647 18.2133 37.8914 17.8602C37.4043 17.5071 37.0494 16.8573 36.8267 15.911C36.604 14.9647 36.4927 13.6229 36.4927 11.8856V7.45762C36.4927 2.48587 34.3285 0 30 0V3.07203C31.4475 3.18502 32.3591 3.58757 32.7349 4.27966C33.0967 4.97175 33.2777 6.65254 33.2777 9.32203V12.3517C33.2777 14.654 33.5073 16.3842 33.9666 17.5424C34.4259 18.7147 35.2262 19.5339 36.3674 20C35.2262 20.4661 34.4259 21.2782 33.9666 22.4364C33.5073 23.5946 33.2777 25.3249 33.2777 27.6271V30.678C33.2777 33.3333 33.0967 35.0071 32.7349 35.6992C32.3591 36.4054 31.4475 36.8079 30 36.9068V40C34.3285 40 36.4927 37.5141 36.4927 32.5424V28.1144C36.4927 26.2641 36.6597 24.7175 36.9937 23.4746Z" fill="#DFDFDF"/>
</g>
</g>
<defs>
<clipPath id="clip0_2720_3389">
<rect width="40" height="40" fill="white"/>
</clipPath>
</defs>
</svg>
