<svg width="603" height="192" viewBox="0 0 603 192" fill="none" xmlns="http://www.w3.org/2000/svg">
<g clip-path="url(#clip0_2720_2676)">
<path d="M99.38 186.72H97.898L97.508 188.676H98.99L99.38 186.72ZM101.648 185.934L101.57 186.384C101.55 186.5 101.502 186.586 101.426 186.642C101.354 186.694 101.242 186.72 101.09 186.72H100.262L99.872 188.676H100.946C101.062 188.676 101.144 188.71 101.192 188.778C101.244 188.842 101.258 188.956 101.234 189.12L101.18 189.462H99.758L99.254 192H98.768C98.716 192 98.668 191.988 98.624 191.964C98.58 191.94 98.542 191.908 98.51 191.868C98.482 191.828 98.462 191.78 98.45 191.724C98.438 191.668 98.438 191.606 98.45 191.538L98.876 189.462H97.394L96.968 191.592C96.944 191.74 96.886 191.846 96.794 191.91C96.702 191.97 96.598 192 96.482 192H96.002L96.512 189.462H95.636C95.524 189.462 95.442 189.43 95.39 189.366C95.342 189.298 95.33 189.182 95.354 189.018L95.402 188.676H96.626L97.016 186.72H95.624L95.702 186.276C95.722 186.16 95.768 186.074 95.84 186.018C95.916 185.962 96.03 185.934 96.182 185.934H97.13L97.562 183.786C97.586 183.666 97.64 183.572 97.724 183.504C97.812 183.436 97.916 183.402 98.036 183.402H98.516L98.012 185.934H99.494L99.998 183.402H100.472C100.588 183.402 100.678 183.44 100.742 183.516C100.81 183.592 100.834 183.688 100.814 183.804L100.376 185.934H101.648ZM112.591 187.704C112.591 188.456 112.509 189.108 112.345 189.66C112.185 190.208 111.965 190.662 111.685 191.022C111.405 191.382 111.073 191.65 110.689 191.826C110.309 192.002 109.901 192.09 109.465 192.09C109.025 192.09 108.615 192.002 108.235 191.826C107.859 191.65 107.531 191.382 107.251 191.022C106.971 190.662 106.751 190.208 106.591 189.66C106.431 189.108 106.351 188.456 106.351 187.704C106.351 186.952 106.431 186.3 106.591 185.748C106.751 185.196 106.971 184.74 107.251 184.38C107.531 184.016 107.859 183.746 108.235 183.57C108.615 183.394 109.025 183.306 109.465 183.306C109.901 183.306 110.309 183.394 110.689 183.57C111.073 183.746 111.405 184.016 111.685 184.38C111.965 184.74 112.185 185.196 112.345 185.748C112.509 186.3 112.591 186.952 112.591 187.704ZM111.481 187.704C111.481 187.048 111.425 186.498 111.313 186.054C111.205 185.606 111.057 185.246 110.869 184.974C110.685 184.702 110.471 184.508 110.227 184.392C109.983 184.272 109.729 184.212 109.465 184.212C109.201 184.212 108.947 184.272 108.703 184.392C108.459 184.508 108.245 184.702 108.061 184.974C107.877 185.246 107.729 185.606 107.617 186.054C107.509 186.498 107.455 187.048 107.455 187.704C107.455 188.36 107.509 188.91 107.617 189.354C107.729 189.798 107.877 190.156 108.061 190.428C108.245 190.7 108.459 190.896 108.703 191.016C108.947 191.132 109.201 191.19 109.465 191.19C109.729 191.19 109.983 191.132 110.227 191.016C110.471 190.896 110.685 190.7 110.869 190.428C111.057 190.156 111.205 189.798 111.313 189.354C111.425 188.91 111.481 188.36 111.481 187.704ZM120.032 187.704C120.032 188.456 119.95 189.108 119.786 189.66C119.626 190.208 119.406 190.662 119.126 191.022C118.846 191.382 118.514 191.65 118.13 191.826C117.75 192.002 117.342 192.09 116.906 192.09C116.466 192.09 116.056 192.002 115.676 191.826C115.3 191.65 114.972 191.382 114.692 191.022C114.412 190.662 114.192 190.208 114.032 189.66C113.872 189.108 113.792 188.456 113.792 187.704C113.792 186.952 113.872 186.3 114.032 185.748C114.192 185.196 114.412 184.74 114.692 184.38C114.972 184.016 115.3 183.746 115.676 183.57C116.056 183.394 116.466 183.306 116.906 183.306C117.342 183.306 117.75 183.394 118.13 183.57C118.514 183.746 118.846 184.016 119.126 184.38C119.406 184.74 119.626 185.196 119.786 185.748C119.95 186.3 120.032 186.952 120.032 187.704ZM118.922 187.704C118.922 187.048 118.866 186.498 118.754 186.054C118.646 185.606 118.498 185.246 118.31 184.974C118.126 184.702 117.912 184.508 117.668 184.392C117.424 184.272 117.17 184.212 116.906 184.212C116.642 184.212 116.388 184.272 116.144 184.392C115.9 184.508 115.686 184.702 115.502 184.974C115.318 185.246 115.17 185.606 115.058 186.054C114.95 186.498 114.896 187.048 114.896 187.704C114.896 188.36 114.95 188.91 115.058 189.354C115.17 189.798 115.318 190.156 115.502 190.428C115.686 190.7 115.9 190.896 116.144 191.016C116.388 191.132 116.642 191.19 116.906 191.19C117.17 191.19 117.424 191.132 117.668 191.016C117.912 190.896 118.126 190.7 118.31 190.428C118.498 190.156 118.646 189.798 118.754 189.354C118.866 188.91 118.922 188.36 118.922 187.704ZM127.473 187.704C127.473 188.456 127.391 189.108 127.227 189.66C127.067 190.208 126.847 190.662 126.567 191.022C126.287 191.382 125.955 191.65 125.571 191.826C125.191 192.002 124.783 192.09 124.347 192.09C123.907 192.09 123.497 192.002 123.117 191.826C122.741 191.65 122.413 191.382 122.133 191.022C121.853 190.662 121.633 190.208 121.473 189.66C121.313 189.108 121.233 188.456 121.233 187.704C121.233 186.952 121.313 186.3 121.473 185.748C121.633 185.196 121.853 184.74 122.133 184.38C122.413 184.016 122.741 183.746 123.117 183.57C123.497 183.394 123.907 183.306 124.347 183.306C124.783 183.306 125.191 183.394 125.571 183.57C125.955 183.746 126.287 184.016 126.567 184.38C126.847 184.74 127.067 185.196 127.227 185.748C127.391 186.3 127.473 186.952 127.473 187.704ZM126.363 187.704C126.363 187.048 126.307 186.498 126.195 186.054C126.087 185.606 125.939 185.246 125.751 184.974C125.567 184.702 125.353 184.508 125.109 184.392C124.865 184.272 124.611 184.212 124.347 184.212C124.083 184.212 123.829 184.272 123.585 184.392C123.341 184.508 123.127 184.702 122.943 184.974C122.759 185.246 122.611 185.606 122.499 186.054C122.391 186.498 122.337 187.048 122.337 187.704C122.337 188.36 122.391 188.91 122.499 189.354C122.611 189.798 122.759 190.156 122.943 190.428C123.127 190.7 123.341 190.896 123.585 191.016C123.829 191.132 124.083 191.19 124.347 191.19C124.611 191.19 124.865 191.132 125.109 191.016C125.353 190.896 125.567 190.7 125.751 190.428C125.939 190.156 126.087 189.798 126.195 189.354C126.307 188.91 126.363 188.36 126.363 187.704Z" fill="#BFBFBF"/>
<path d="M221.38 186.72H219.898L219.508 188.676H220.99L221.38 186.72ZM223.648 185.934L223.57 186.384C223.55 186.5 223.502 186.586 223.426 186.642C223.354 186.694 223.242 186.72 223.09 186.72H222.262L221.872 188.676H222.946C223.062 188.676 223.144 188.71 223.192 188.778C223.244 188.842 223.258 188.956 223.234 189.12L223.18 189.462H221.758L221.254 192H220.768C220.716 192 220.668 191.988 220.624 191.964C220.58 191.94 220.542 191.908 220.51 191.868C220.482 191.828 220.462 191.78 220.45 191.724C220.438 191.668 220.438 191.606 220.45 191.538L220.876 189.462H219.394L218.968 191.592C218.944 191.74 218.886 191.846 218.794 191.91C218.702 191.97 218.598 192 218.482 192H218.002L218.512 189.462H217.636C217.524 189.462 217.442 189.43 217.39 189.366C217.342 189.298 217.33 189.182 217.354 189.018L217.402 188.676H218.626L219.016 186.72H217.624L217.702 186.276C217.722 186.16 217.768 186.074 217.84 186.018C217.916 185.962 218.03 185.934 218.182 185.934H219.13L219.562 183.786C219.586 183.666 219.64 183.572 219.724 183.504C219.812 183.436 219.916 183.402 220.036 183.402H220.516L220.012 185.934H221.494L221.998 183.402H222.472C222.588 183.402 222.678 183.44 222.742 183.516C222.81 183.592 222.834 183.688 222.814 183.804L222.376 185.934H223.648ZM234.591 187.704C234.591 188.456 234.509 189.108 234.345 189.66C234.185 190.208 233.965 190.662 233.685 191.022C233.405 191.382 233.073 191.65 232.689 191.826C232.309 192.002 231.901 192.09 231.465 192.09C231.025 192.09 230.615 192.002 230.235 191.826C229.859 191.65 229.531 191.382 229.251 191.022C228.971 190.662 228.751 190.208 228.591 189.66C228.431 189.108 228.351 188.456 228.351 187.704C228.351 186.952 228.431 186.3 228.591 185.748C228.751 185.196 228.971 184.74 229.251 184.38C229.531 184.016 229.859 183.746 230.235 183.57C230.615 183.394 231.025 183.306 231.465 183.306C231.901 183.306 232.309 183.394 232.689 183.57C233.073 183.746 233.405 184.016 233.685 184.38C233.965 184.74 234.185 185.196 234.345 185.748C234.509 186.3 234.591 186.952 234.591 187.704ZM233.481 187.704C233.481 187.048 233.425 186.498 233.313 186.054C233.205 185.606 233.057 185.246 232.869 184.974C232.685 184.702 232.471 184.508 232.227 184.392C231.983 184.272 231.729 184.212 231.465 184.212C231.201 184.212 230.947 184.272 230.703 184.392C230.459 184.508 230.245 184.702 230.061 184.974C229.877 185.246 229.729 185.606 229.617 186.054C229.509 186.498 229.455 187.048 229.455 187.704C229.455 188.36 229.509 188.91 229.617 189.354C229.729 189.798 229.877 190.156 230.061 190.428C230.245 190.7 230.459 190.896 230.703 191.016C230.947 191.132 231.201 191.19 231.465 191.19C231.729 191.19 231.983 191.132 232.227 191.016C232.471 190.896 232.685 190.7 232.869 190.428C233.057 190.156 233.205 189.798 233.313 189.354C233.425 188.91 233.481 188.36 233.481 187.704ZM242.032 187.704C242.032 188.456 241.95 189.108 241.786 189.66C241.626 190.208 241.406 190.662 241.126 191.022C240.846 191.382 240.514 191.65 240.13 191.826C239.75 192.002 239.342 192.09 238.906 192.09C238.466 192.09 238.056 192.002 237.676 191.826C237.3 191.65 236.972 191.382 236.692 191.022C236.412 190.662 236.192 190.208 236.032 189.66C235.872 189.108 235.792 188.456 235.792 187.704C235.792 186.952 235.872 186.3 236.032 185.748C236.192 185.196 236.412 184.74 236.692 184.38C236.972 184.016 237.3 183.746 237.676 183.57C238.056 183.394 238.466 183.306 238.906 183.306C239.342 183.306 239.75 183.394 240.13 183.57C240.514 183.746 240.846 184.016 241.126 184.38C241.406 184.74 241.626 185.196 241.786 185.748C241.95 186.3 242.032 186.952 242.032 187.704ZM240.922 187.704C240.922 187.048 240.866 186.498 240.754 186.054C240.646 185.606 240.498 185.246 240.31 184.974C240.126 184.702 239.912 184.508 239.668 184.392C239.424 184.272 239.17 184.212 238.906 184.212C238.642 184.212 238.388 184.272 238.144 184.392C237.9 184.508 237.686 184.702 237.502 184.974C237.318 185.246 237.17 185.606 237.058 186.054C236.95 186.498 236.896 187.048 236.896 187.704C236.896 188.36 236.95 188.91 237.058 189.354C237.17 189.798 237.318 190.156 237.502 190.428C237.686 190.7 237.9 190.896 238.144 191.016C238.388 191.132 238.642 191.19 238.906 191.19C239.17 191.19 239.424 191.132 239.668 191.016C239.912 190.896 240.126 190.7 240.31 190.428C240.498 190.156 240.646 189.798 240.754 189.354C240.866 188.91 240.922 188.36 240.922 187.704ZM249.473 187.704C249.473 188.456 249.391 189.108 249.227 189.66C249.067 190.208 248.847 190.662 248.567 191.022C248.287 191.382 247.955 191.65 247.571 191.826C247.191 192.002 246.783 192.09 246.347 192.09C245.907 192.09 245.497 192.002 245.117 191.826C244.741 191.65 244.413 191.382 244.133 191.022C243.853 190.662 243.633 190.208 243.473 189.66C243.313 189.108 243.233 188.456 243.233 187.704C243.233 186.952 243.313 186.3 243.473 185.748C243.633 185.196 243.853 184.74 244.133 184.38C244.413 184.016 244.741 183.746 245.117 183.57C245.497 183.394 245.907 183.306 246.347 183.306C246.783 183.306 247.191 183.394 247.571 183.57C247.955 183.746 248.287 184.016 248.567 184.38C248.847 184.74 249.067 185.196 249.227 185.748C249.391 186.3 249.473 186.952 249.473 187.704ZM248.363 187.704C248.363 187.048 248.307 186.498 248.195 186.054C248.087 185.606 247.939 185.246 247.751 184.974C247.567 184.702 247.353 184.508 247.109 184.392C246.865 184.272 246.611 184.212 246.347 184.212C246.083 184.212 245.829 184.272 245.585 184.392C245.341 184.508 245.127 184.702 244.943 184.974C244.759 185.246 244.611 185.606 244.499 186.054C244.391 186.498 244.337 187.048 244.337 187.704C244.337 188.36 244.391 188.91 244.499 189.354C244.611 189.798 244.759 190.156 244.943 190.428C245.127 190.7 245.341 190.896 245.585 191.016C245.829 191.132 246.083 191.19 246.347 191.19C246.611 191.19 246.865 191.132 247.109 191.016C247.353 190.896 247.567 190.7 247.751 190.428C247.939 190.156 248.087 189.798 248.195 189.354C248.307 188.91 248.363 188.36 248.363 187.704Z" fill="#BFBFBF"/>
<path d="M343.38 186.72H341.898L341.508 188.676H342.99L343.38 186.72ZM345.648 185.934L345.57 186.384C345.55 186.5 345.502 186.586 345.426 186.642C345.354 186.694 345.242 186.72 345.09 186.72H344.262L343.872 188.676H344.946C345.062 188.676 345.144 188.71 345.192 188.778C345.244 188.842 345.258 188.956 345.234 189.12L345.18 189.462H343.758L343.254 192H342.768C342.716 192 342.668 191.988 342.624 191.964C342.58 191.94 342.542 191.908 342.51 191.868C342.482 191.828 342.462 191.78 342.45 191.724C342.438 191.668 342.438 191.606 342.45 191.538L342.876 189.462H341.394L340.968 191.592C340.944 191.74 340.886 191.846 340.794 191.91C340.702 191.97 340.598 192 340.482 192H340.002L340.512 189.462H339.636C339.524 189.462 339.442 189.43 339.39 189.366C339.342 189.298 339.33 189.182 339.354 189.018L339.402 188.676H340.626L341.016 186.72H339.624L339.702 186.276C339.722 186.16 339.768 186.074 339.84 186.018C339.916 185.962 340.03 185.934 340.182 185.934H341.13L341.562 183.786C341.586 183.666 341.64 183.572 341.724 183.504C341.812 183.436 341.916 183.402 342.036 183.402H342.516L342.012 185.934H343.494L343.998 183.402H344.472C344.588 183.402 344.678 183.44 344.742 183.516C344.81 183.592 344.834 183.688 344.814 183.804L344.376 185.934H345.648ZM356.591 187.704C356.591 188.456 356.509 189.108 356.345 189.66C356.185 190.208 355.965 190.662 355.685 191.022C355.405 191.382 355.073 191.65 354.689 191.826C354.309 192.002 353.901 192.09 353.465 192.09C353.025 192.09 352.615 192.002 352.235 191.826C351.859 191.65 351.531 191.382 351.251 191.022C350.971 190.662 350.751 190.208 350.591 189.66C350.431 189.108 350.351 188.456 350.351 187.704C350.351 186.952 350.431 186.3 350.591 185.748C350.751 185.196 350.971 184.74 351.251 184.38C351.531 184.016 351.859 183.746 352.235 183.57C352.615 183.394 353.025 183.306 353.465 183.306C353.901 183.306 354.309 183.394 354.689 183.57C355.073 183.746 355.405 184.016 355.685 184.38C355.965 184.74 356.185 185.196 356.345 185.748C356.509 186.3 356.591 186.952 356.591 187.704ZM355.481 187.704C355.481 187.048 355.425 186.498 355.313 186.054C355.205 185.606 355.057 185.246 354.869 184.974C354.685 184.702 354.471 184.508 354.227 184.392C353.983 184.272 353.729 184.212 353.465 184.212C353.201 184.212 352.947 184.272 352.703 184.392C352.459 184.508 352.245 184.702 352.061 184.974C351.877 185.246 351.729 185.606 351.617 186.054C351.509 186.498 351.455 187.048 351.455 187.704C351.455 188.36 351.509 188.91 351.617 189.354C351.729 189.798 351.877 190.156 352.061 190.428C352.245 190.7 352.459 190.896 352.703 191.016C352.947 191.132 353.201 191.19 353.465 191.19C353.729 191.19 353.983 191.132 354.227 191.016C354.471 190.896 354.685 190.7 354.869 190.428C355.057 190.156 355.205 189.798 355.313 189.354C355.425 188.91 355.481 188.36 355.481 187.704ZM364.032 187.704C364.032 188.456 363.95 189.108 363.786 189.66C363.626 190.208 363.406 190.662 363.126 191.022C362.846 191.382 362.514 191.65 362.13 191.826C361.75 192.002 361.342 192.09 360.906 192.09C360.466 192.09 360.056 192.002 359.676 191.826C359.3 191.65 358.972 191.382 358.692 191.022C358.412 190.662 358.192 190.208 358.032 189.66C357.872 189.108 357.792 188.456 357.792 187.704C357.792 186.952 357.872 186.3 358.032 185.748C358.192 185.196 358.412 184.74 358.692 184.38C358.972 184.016 359.3 183.746 359.676 183.57C360.056 183.394 360.466 183.306 360.906 183.306C361.342 183.306 361.75 183.394 362.13 183.57C362.514 183.746 362.846 184.016 363.126 184.38C363.406 184.74 363.626 185.196 363.786 185.748C363.95 186.3 364.032 186.952 364.032 187.704ZM362.922 187.704C362.922 187.048 362.866 186.498 362.754 186.054C362.646 185.606 362.498 185.246 362.31 184.974C362.126 184.702 361.912 184.508 361.668 184.392C361.424 184.272 361.17 184.212 360.906 184.212C360.642 184.212 360.388 184.272 360.144 184.392C359.9 184.508 359.686 184.702 359.502 184.974C359.318 185.246 359.17 185.606 359.058 186.054C358.95 186.498 358.896 187.048 358.896 187.704C358.896 188.36 358.95 188.91 359.058 189.354C359.17 189.798 359.318 190.156 359.502 190.428C359.686 190.7 359.9 190.896 360.144 191.016C360.388 191.132 360.642 191.19 360.906 191.19C361.17 191.19 361.424 191.132 361.668 191.016C361.912 190.896 362.126 190.7 362.31 190.428C362.498 190.156 362.646 189.798 362.754 189.354C362.866 188.91 362.922 188.36 362.922 187.704ZM371.473 187.704C371.473 188.456 371.391 189.108 371.227 189.66C371.067 190.208 370.847 190.662 370.567 191.022C370.287 191.382 369.955 191.65 369.571 191.826C369.191 192.002 368.783 192.09 368.347 192.09C367.907 192.09 367.497 192.002 367.117 191.826C366.741 191.65 366.413 191.382 366.133 191.022C365.853 190.662 365.633 190.208 365.473 189.66C365.313 189.108 365.233 188.456 365.233 187.704C365.233 186.952 365.313 186.3 365.473 185.748C365.633 185.196 365.853 184.74 366.133 184.38C366.413 184.016 366.741 183.746 367.117 183.57C367.497 183.394 367.907 183.306 368.347 183.306C368.783 183.306 369.191 183.394 369.571 183.57C369.955 183.746 370.287 184.016 370.567 184.38C370.847 184.74 371.067 185.196 371.227 185.748C371.391 186.3 371.473 186.952 371.473 187.704ZM370.363 187.704C370.363 187.048 370.307 186.498 370.195 186.054C370.087 185.606 369.939 185.246 369.751 184.974C369.567 184.702 369.353 184.508 369.109 184.392C368.865 184.272 368.611 184.212 368.347 184.212C368.083 184.212 367.829 184.272 367.585 184.392C367.341 184.508 367.127 184.702 366.943 184.974C366.759 185.246 366.611 185.606 366.499 186.054C366.391 186.498 366.337 187.048 366.337 187.704C366.337 188.36 366.391 188.91 366.499 189.354C366.611 189.798 366.759 190.156 366.943 190.428C367.127 190.7 367.341 190.896 367.585 191.016C367.829 191.132 368.083 191.19 368.347 191.19C368.611 191.19 368.865 191.132 369.109 191.016C369.353 190.896 369.567 190.7 369.751 190.428C369.939 190.156 370.087 189.798 370.195 189.354C370.307 188.91 370.363 188.36 370.363 187.704Z" fill="#BFBFBF"/>
<path d="M465.38 186.72H463.898L463.508 188.676H464.99L465.38 186.72ZM467.648 185.934L467.57 186.384C467.55 186.5 467.502 186.586 467.426 186.642C467.354 186.694 467.242 186.72 467.09 186.72H466.262L465.872 188.676H466.946C467.062 188.676 467.144 188.71 467.192 188.778C467.244 188.842 467.258 188.956 467.234 189.12L467.18 189.462H465.758L465.254 192H464.768C464.716 192 464.668 191.988 464.624 191.964C464.58 191.94 464.542 191.908 464.51 191.868C464.482 191.828 464.462 191.78 464.45 191.724C464.438 191.668 464.438 191.606 464.45 191.538L464.876 189.462H463.394L462.968 191.592C462.944 191.74 462.886 191.846 462.794 191.91C462.702 191.97 462.598 192 462.482 192H462.002L462.512 189.462H461.636C461.524 189.462 461.442 189.43 461.39 189.366C461.342 189.298 461.33 189.182 461.354 189.018L461.402 188.676H462.626L463.016 186.72H461.624L461.702 186.276C461.722 186.16 461.768 186.074 461.84 186.018C461.916 185.962 462.03 185.934 462.182 185.934H463.13L463.562 183.786C463.586 183.666 463.64 183.572 463.724 183.504C463.812 183.436 463.916 183.402 464.036 183.402H464.516L464.012 185.934H465.494L465.998 183.402H466.472C466.588 183.402 466.678 183.44 466.742 183.516C466.81 183.592 466.834 183.688 466.814 183.804L466.376 185.934H467.648ZM478.591 187.704C478.591 188.456 478.509 189.108 478.345 189.66C478.185 190.208 477.965 190.662 477.685 191.022C477.405 191.382 477.073 191.65 476.689 191.826C476.309 192.002 475.901 192.09 475.465 192.09C475.025 192.09 474.615 192.002 474.235 191.826C473.859 191.65 473.531 191.382 473.251 191.022C472.971 190.662 472.751 190.208 472.591 189.66C472.431 189.108 472.351 188.456 472.351 187.704C472.351 186.952 472.431 186.3 472.591 185.748C472.751 185.196 472.971 184.74 473.251 184.38C473.531 184.016 473.859 183.746 474.235 183.57C474.615 183.394 475.025 183.306 475.465 183.306C475.901 183.306 476.309 183.394 476.689 183.57C477.073 183.746 477.405 184.016 477.685 184.38C477.965 184.74 478.185 185.196 478.345 185.748C478.509 186.3 478.591 186.952 478.591 187.704ZM477.481 187.704C477.481 187.048 477.425 186.498 477.313 186.054C477.205 185.606 477.057 185.246 476.869 184.974C476.685 184.702 476.471 184.508 476.227 184.392C475.983 184.272 475.729 184.212 475.465 184.212C475.201 184.212 474.947 184.272 474.703 184.392C474.459 184.508 474.245 184.702 474.061 184.974C473.877 185.246 473.729 185.606 473.617 186.054C473.509 186.498 473.455 187.048 473.455 187.704C473.455 188.36 473.509 188.91 473.617 189.354C473.729 189.798 473.877 190.156 474.061 190.428C474.245 190.7 474.459 190.896 474.703 191.016C474.947 191.132 475.201 191.19 475.465 191.19C475.729 191.19 475.983 191.132 476.227 191.016C476.471 190.896 476.685 190.7 476.869 190.428C477.057 190.156 477.205 189.798 477.313 189.354C477.425 188.91 477.481 188.36 477.481 187.704ZM486.032 187.704C486.032 188.456 485.95 189.108 485.786 189.66C485.626 190.208 485.406 190.662 485.126 191.022C484.846 191.382 484.514 191.65 484.13 191.826C483.75 192.002 483.342 192.09 482.906 192.09C482.466 192.09 482.056 192.002 481.676 191.826C481.3 191.65 480.972 191.382 480.692 191.022C480.412 190.662 480.192 190.208 480.032 189.66C479.872 189.108 479.792 188.456 479.792 187.704C479.792 186.952 479.872 186.3 480.032 185.748C480.192 185.196 480.412 184.74 480.692 184.38C480.972 184.016 481.3 183.746 481.676 183.57C482.056 183.394 482.466 183.306 482.906 183.306C483.342 183.306 483.75 183.394 484.13 183.57C484.514 183.746 484.846 184.016 485.126 184.38C485.406 184.74 485.626 185.196 485.786 185.748C485.95 186.3 486.032 186.952 486.032 187.704ZM484.922 187.704C484.922 187.048 484.866 186.498 484.754 186.054C484.646 185.606 484.498 185.246 484.31 184.974C484.126 184.702 483.912 184.508 483.668 184.392C483.424 184.272 483.17 184.212 482.906 184.212C482.642 184.212 482.388 184.272 482.144 184.392C481.9 184.508 481.686 184.702 481.502 184.974C481.318 185.246 481.17 185.606 481.058 186.054C480.95 186.498 480.896 187.048 480.896 187.704C480.896 188.36 480.95 188.91 481.058 189.354C481.17 189.798 481.318 190.156 481.502 190.428C481.686 190.7 481.9 190.896 482.144 191.016C482.388 191.132 482.642 191.19 482.906 191.19C483.17 191.19 483.424 191.132 483.668 191.016C483.912 190.896 484.126 190.7 484.31 190.428C484.498 190.156 484.646 189.798 484.754 189.354C484.866 188.91 484.922 188.36 484.922 187.704ZM493.473 187.704C493.473 188.456 493.391 189.108 493.227 189.66C493.067 190.208 492.847 190.662 492.567 191.022C492.287 191.382 491.955 191.65 491.571 191.826C491.191 192.002 490.783 192.09 490.347 192.09C489.907 192.09 489.497 192.002 489.117 191.826C488.741 191.65 488.413 191.382 488.133 191.022C487.853 190.662 487.633 190.208 487.473 189.66C487.313 189.108 487.233 188.456 487.233 187.704C487.233 186.952 487.313 186.3 487.473 185.748C487.633 185.196 487.853 184.74 488.133 184.38C488.413 184.016 488.741 183.746 489.117 183.57C489.497 183.394 489.907 183.306 490.347 183.306C490.783 183.306 491.191 183.394 491.571 183.57C491.955 183.746 492.287 184.016 492.567 184.38C492.847 184.74 493.067 185.196 493.227 185.748C493.391 186.3 493.473 186.952 493.473 187.704ZM492.363 187.704C492.363 187.048 492.307 186.498 492.195 186.054C492.087 185.606 491.939 185.246 491.751 184.974C491.567 184.702 491.353 184.508 491.109 184.392C490.865 184.272 490.611 184.212 490.347 184.212C490.083 184.212 489.829 184.272 489.585 184.392C489.341 184.508 489.127 184.702 488.943 184.974C488.759 185.246 488.611 185.606 488.499 186.054C488.391 186.498 488.337 187.048 488.337 187.704C488.337 188.36 488.391 188.91 488.499 189.354C488.611 189.798 488.759 190.156 488.943 190.428C489.127 190.7 489.341 190.896 489.585 191.016C489.829 191.132 490.083 191.19 490.347 191.19C490.611 191.19 490.865 191.132 491.109 191.016C491.353 190.896 491.567 190.7 491.751 190.428C491.939 190.156 492.087 189.798 492.195 189.354C492.307 188.91 492.363 188.36 492.363 187.704Z" fill="#BFBFBF"/>
<rect width="603" height="1" transform="translate(1 33)" fill="#606060"/>
<rect width="603" height="1" transform="translate(1 56)" fill="#606060"/>
<rect width="603" height="1" transform="translate(1 79)" fill="#606060"/>
<rect width="603" height="1" transform="translate(1 102)" fill="#606060"/>
<rect width="603" height="1" transform="translate(1 125)" fill="#606060"/>
<rect width="603" height="1" transform="translate(1 148)" fill="#606060"/>
<rect width="603" height="1" transform="translate(1 171)" fill="#606060"/>
<path d="M1 62.8199V172H604V40.7739L524.398 70.6935L422.255 35L294.751 96.9387L193.312 76.9923L117.937 101.663L55.2418 59.1456L1 62.8199Z" fill="white" fill-opacity="0.08"/>
<path d="M1 63.0626L55.2418 59.3793L117.937 102L193.312 77.2695L294.751 97.2644L422.442 36L524.398 70.9553L604 40.963" stroke="#DFDFDF"/>
<rect x="417" y="30" width="12" height="12" rx="6" fill="#404040"/>
<rect x="417" y="30" width="12" height="12" rx="6" stroke="#DFDFDF" stroke-width="4"/>
<path d="M402.11 7.84H400.381L399.926 10.122H401.655L402.11 7.84ZM404.756 6.923L404.665 7.448C404.642 7.58333 404.586 7.68367 404.497 7.749C404.413 7.80967 404.282 7.84 404.105 7.84H403.139L402.684 10.122H403.937C404.072 10.122 404.168 10.1617 404.224 10.241C404.285 10.3157 404.301 10.4487 404.273 10.64L404.21 11.039H402.551L401.963 14H401.396C401.335 14 401.279 13.986 401.228 13.958C401.177 13.93 401.132 13.8927 401.095 13.846C401.062 13.7993 401.039 13.7433 401.025 13.678C401.011 13.6127 401.011 13.5403 401.025 13.461L401.522 11.039H399.793L399.296 13.524C399.268 13.6967 399.2 13.8203 399.093 13.895C398.986 13.965 398.864 14 398.729 14H398.169L398.764 11.039H397.742C397.611 11.039 397.516 11.0017 397.455 10.927C397.399 10.8477 397.385 10.7123 397.413 10.521L397.469 10.122H398.897L399.352 7.84H397.728L397.819 7.322C397.842 7.18667 397.896 7.08633 397.98 7.021C398.069 6.95567 398.202 6.923 398.379 6.923H399.485L399.989 4.417C400.017 4.277 400.08 4.16733 400.178 4.088C400.281 4.00867 400.402 3.969 400.542 3.969H401.102L400.514 6.923H402.243L402.831 3.969H403.384C403.519 3.969 403.624 4.01333 403.699 4.102C403.778 4.19067 403.806 4.30267 403.783 4.438L403.272 6.923H404.756ZM418.753 3.969L414.665 14H413.447L409.359 3.969H410.444C410.566 3.969 410.664 3.99933 410.738 4.06C410.813 4.12067 410.869 4.19767 410.906 4.291L413.734 11.368C413.795 11.5267 413.853 11.6993 413.909 11.886C413.97 12.0727 414.024 12.2687 414.07 12.474C414.117 12.2687 414.166 12.0727 414.217 11.886C414.269 11.6993 414.325 11.5267 414.385 11.368L417.206 4.291C417.234 4.21167 417.288 4.13933 417.367 4.074C417.451 4.004 417.552 3.969 417.668 3.969H418.753ZM423.156 10.808C422.582 10.8267 422.092 10.8733 421.686 10.948C421.285 11.018 420.956 11.1113 420.699 11.228C420.447 11.3447 420.263 11.4823 420.146 11.641C420.034 11.7997 419.978 11.977 419.978 12.173C419.978 12.3597 420.009 12.5207 420.069 12.656C420.13 12.7913 420.212 12.9033 420.314 12.992C420.422 13.076 420.545 13.139 420.685 13.181C420.83 13.2183 420.984 13.237 421.147 13.237C421.367 13.237 421.567 13.216 421.749 13.174C421.931 13.1273 422.102 13.062 422.26 12.978C422.424 12.894 422.578 12.7937 422.722 12.677C422.872 12.5603 423.016 12.4273 423.156 12.278V10.808ZM419.131 7.91C419.523 7.532 419.946 7.24967 420.398 7.063C420.851 6.87633 421.353 6.783 421.903 6.783C422.3 6.783 422.652 6.84833 422.96 6.979C423.268 7.10967 423.527 7.29167 423.737 7.525C423.947 7.75833 424.106 8.04067 424.213 8.372C424.321 8.70333 424.374 9.06733 424.374 9.464V14H423.821C423.7 14 423.607 13.9813 423.541 13.944C423.476 13.902 423.425 13.8227 423.387 13.706L423.247 13.034C423.061 13.2067 422.879 13.3607 422.701 13.496C422.524 13.6267 422.337 13.7387 422.141 13.832C421.945 13.9207 421.735 13.9883 421.511 14.035C421.292 14.0863 421.047 14.112 420.776 14.112C420.501 14.112 420.242 14.0747 419.999 14C419.757 13.9207 419.544 13.804 419.362 13.65C419.185 13.496 419.043 13.3023 418.935 13.069C418.833 12.831 418.781 12.551 418.781 12.229C418.781 11.949 418.858 11.6807 419.012 11.424C419.166 11.1627 419.416 10.9317 419.761 10.731C420.107 10.5303 420.557 10.367 421.112 10.241C421.668 10.1103 422.349 10.0357 423.156 10.017V9.464C423.156 8.91333 423.037 8.498 422.799 8.218C422.561 7.93333 422.214 7.791 421.756 7.791C421.448 7.791 421.189 7.83067 420.979 7.91C420.774 7.98467 420.594 8.071 420.44 8.169C420.291 8.26233 420.16 8.34867 420.048 8.428C419.941 8.50267 419.834 8.54 419.726 8.54C419.642 8.54 419.57 8.519 419.509 8.477C419.449 8.43033 419.397 8.37433 419.355 8.309L419.131 7.91ZM428.12 3.689V14H426.874V3.689H428.12ZM436.532 6.909V14H435.79C435.613 14 435.501 13.9137 435.454 13.741L435.356 12.978C435.048 13.3187 434.703 13.594 434.32 13.804C433.937 14.0093 433.499 14.112 433.004 14.112C432.617 14.112 432.274 14.049 431.975 13.923C431.681 13.7923 431.434 13.6103 431.233 13.377C431.032 13.1437 430.881 12.8613 430.778 12.53C430.68 12.1987 430.631 11.8323 430.631 11.431V6.909H431.877V11.431C431.877 11.9677 431.998 12.383 432.241 12.677C432.488 12.971 432.864 13.118 433.368 13.118C433.737 13.118 434.08 13.0317 434.397 12.859C434.719 12.6817 435.015 12.439 435.286 12.131V6.909H436.532ZM443.814 9.681C443.814 9.39167 443.772 9.128 443.688 8.89C443.608 8.64733 443.489 8.43967 443.331 8.267C443.177 8.08967 442.988 7.95433 442.764 7.861C442.54 7.763 442.285 7.714 442.001 7.714C441.403 7.714 440.93 7.889 440.58 8.239C440.234 8.58433 440.02 9.065 439.936 9.681H443.814ZM444.822 13.006C444.668 13.1927 444.483 13.356 444.269 13.496C444.054 13.6313 443.823 13.7433 443.576 13.832C443.333 13.9207 443.081 13.986 442.82 14.028C442.558 14.0747 442.299 14.098 442.043 14.098C441.553 14.098 441.1 14.0163 440.685 13.853C440.274 13.685 439.917 13.4423 439.614 13.125C439.315 12.803 439.082 12.4063 438.914 11.935C438.746 11.4637 438.662 10.9223 438.662 10.311C438.662 9.81633 438.736 9.35433 438.886 8.925C439.04 8.49567 439.259 8.12467 439.544 7.812C439.828 7.49467 440.176 7.24733 440.587 7.07C440.997 6.888 441.459 6.797 441.973 6.797C442.397 6.797 442.789 6.86933 443.149 7.014C443.513 7.154 443.825 7.35933 444.087 7.63C444.353 7.896 444.56 8.22733 444.71 8.624C444.859 9.016 444.934 9.464 444.934 9.968C444.934 10.164 444.913 10.2947 444.871 10.36C444.829 10.4253 444.749 10.458 444.633 10.458H439.894C439.908 10.906 439.968 11.2957 440.076 11.627C440.188 11.9583 440.342 12.236 440.538 12.46C440.734 12.6793 440.967 12.845 441.238 12.957C441.508 13.0643 441.812 13.118 442.148 13.118C442.46 13.118 442.729 13.083 442.953 13.013C443.181 12.9383 443.377 12.859 443.541 12.775C443.704 12.691 443.839 12.614 443.947 12.544C444.059 12.4693 444.154 12.432 444.234 12.432C444.336 12.432 444.416 12.4717 444.472 12.551L444.822 13.006Z" fill="#DFDFDF"/>
<path d="M4.05615 11.0972L6.7793 3.25781H8.10596L4.68457 12.5H3.73877L4.05615 11.0972ZM1.51074 3.25781L4.2085 11.0972L4.54492 12.5H3.59912L0.184082 3.25781H1.51074ZM11.7432 12.627C11.265 12.627 10.8312 12.5465 10.4419 12.3857C10.0568 12.2207 9.72461 11.9901 9.44531 11.6938C9.17025 11.3976 8.95866 11.0464 8.81055 10.6401C8.66243 10.2339 8.58838 9.78955 8.58838 9.30713V9.04053C8.58838 8.48193 8.6709 7.9847 8.83594 7.54883C9.00098 7.10872 9.22526 6.73633 9.50879 6.43164C9.79232 6.12695 10.1139 5.89632 10.4736 5.73975C10.8333 5.58317 11.2057 5.50488 11.5908 5.50488C12.0817 5.50488 12.5049 5.58952 12.8604 5.75879C13.2201 5.92806 13.5142 6.16504 13.7427 6.46973C13.9712 6.77018 14.1405 7.12565 14.2505 7.53613C14.3605 7.94238 14.4155 8.38672 14.4155 8.86914V9.396H9.28662V8.4375H13.2412V8.34863C13.2243 8.04395 13.1608 7.74772 13.0508 7.45996C12.945 7.1722 12.7757 6.93522 12.543 6.74902C12.3102 6.56283 11.9928 6.46973 11.5908 6.46973C11.3242 6.46973 11.0788 6.52686 10.8545 6.64111C10.6302 6.75114 10.4377 6.91618 10.2769 7.13623C10.116 7.35628 9.99121 7.625 9.90234 7.94238C9.81348 8.25977 9.76904 8.62581 9.76904 9.04053V9.30713C9.76904 9.63298 9.81348 9.93978 9.90234 10.2275C9.99544 10.5111 10.1287 10.7607 10.3022 10.9766C10.48 11.1924 10.6937 11.3617 10.9434 11.4844C11.1973 11.6071 11.485 11.6685 11.8066 11.6685C12.2214 11.6685 12.5726 11.5838 12.8604 11.4146C13.1481 11.2453 13.3999 11.0189 13.6157 10.7354L14.3267 11.3003C14.1785 11.5246 13.9902 11.7383 13.7617 11.9414C13.5332 12.1445 13.2518 12.3096 12.9175 12.4365C12.5874 12.5635 12.196 12.627 11.7432 12.627ZM16.9609 6.71094V12.5H15.7866V5.63184H16.9292L16.9609 6.71094ZM19.1064 5.59375L19.1001 6.68555C19.0028 6.66439 18.9097 6.65169 18.8208 6.64746C18.7362 6.639 18.6388 6.63477 18.5288 6.63477C18.258 6.63477 18.0189 6.67708 17.8115 6.76172C17.6042 6.84635 17.4285 6.96484 17.2847 7.11719C17.1408 7.26953 17.0265 7.4515 16.9419 7.66309C16.8615 7.87044 16.8086 8.09896 16.7832 8.34863L16.4531 8.53906C16.4531 8.12435 16.4933 7.73503 16.5737 7.37109C16.6584 7.00716 16.7874 6.68555 16.9609 6.40625C17.1344 6.12272 17.3545 5.90267 17.6211 5.74609C17.8919 5.58529 18.2135 5.50488 18.5859 5.50488C18.6706 5.50488 18.7679 5.51546 18.8779 5.53662C18.988 5.55355 19.0641 5.57259 19.1064 5.59375ZM24.1909 10.6782C24.1909 10.509 24.1528 10.3524 24.0767 10.2085C24.0047 10.0604 23.8545 9.92708 23.626 9.80859C23.4017 9.68587 23.0632 9.58008 22.6104 9.49121C22.2295 9.41081 21.8846 9.31559 21.5757 9.20557C21.271 9.09554 21.0107 8.96224 20.7949 8.80566C20.5833 8.64909 20.4204 8.46501 20.3062 8.25342C20.1919 8.04183 20.1348 7.79427 20.1348 7.51074C20.1348 7.23991 20.194 6.98389 20.3125 6.74268C20.4352 6.50146 20.6066 6.28776 20.8267 6.10156C21.0509 5.91536 21.3197 5.76937 21.6328 5.66357C21.946 5.55778 22.2951 5.50488 22.6802 5.50488C23.2303 5.50488 23.7 5.60221 24.0894 5.79688C24.4787 5.99154 24.777 6.25179 24.9844 6.57764C25.1917 6.89925 25.2954 7.25684 25.2954 7.65039H24.1211C24.1211 7.45996 24.064 7.27588 23.9497 7.09814C23.8397 6.91618 23.6768 6.76595 23.4609 6.64746C23.2493 6.52897 22.9891 6.46973 22.6802 6.46973C22.3543 6.46973 22.0898 6.52051 21.8867 6.62207C21.6878 6.7194 21.5418 6.84424 21.4487 6.99658C21.3599 7.14893 21.3154 7.30973 21.3154 7.479C21.3154 7.60596 21.3366 7.72021 21.3789 7.82178C21.4255 7.91911 21.5059 8.01009 21.6201 8.09473C21.7344 8.17513 21.8952 8.2513 22.1025 8.32324C22.3099 8.39518 22.5744 8.46712 22.896 8.53906C23.4588 8.66602 23.9222 8.81836 24.2861 8.99609C24.6501 9.17383 24.9209 9.39176 25.0986 9.6499C25.2764 9.90804 25.3652 10.2212 25.3652 10.5894C25.3652 10.8898 25.3018 11.1649 25.1748 11.4146C25.0521 11.6642 24.8722 11.88 24.6353 12.062C24.4025 12.2397 24.1232 12.3794 23.7974 12.481C23.4757 12.5783 23.1139 12.627 22.7119 12.627C22.1068 12.627 21.5947 12.519 21.1758 12.3032C20.7568 12.0874 20.4395 11.8081 20.2236 11.4653C20.0078 11.1226 19.8999 10.7607 19.8999 10.3799H21.0806C21.0975 10.7015 21.1906 10.9575 21.3599 11.1479C21.5291 11.3341 21.7365 11.4674 21.9819 11.5479C22.2274 11.624 22.4707 11.6621 22.7119 11.6621C23.0335 11.6621 23.3022 11.6198 23.5181 11.5352C23.7381 11.4505 23.9053 11.3341 24.0195 11.186C24.1338 11.0379 24.1909 10.8687 24.1909 10.6782ZM28.1836 5.63184V12.5H27.0029V5.63184H28.1836ZM26.9141 3.81006C26.9141 3.61963 26.9712 3.45882 27.0854 3.32764C27.2039 3.19645 27.3774 3.13086 27.606 3.13086C27.8302 3.13086 28.0016 3.19645 28.1201 3.32764C28.2428 3.45882 28.3042 3.61963 28.3042 3.81006C28.3042 3.99202 28.2428 4.1486 28.1201 4.27979C28.0016 4.40674 27.8302 4.47021 27.606 4.47021C27.3774 4.47021 27.2039 4.40674 27.0854 4.27979C26.9712 4.1486 26.9141 3.99202 26.9141 3.81006ZM29.7578 9.14209V8.99609C29.7578 8.50098 29.8298 8.04183 29.9736 7.61865C30.1175 7.19124 30.3249 6.82096 30.5957 6.50781C30.8665 6.19043 31.1945 5.94499 31.5796 5.77148C31.9647 5.59375 32.3963 5.50488 32.8745 5.50488C33.3569 5.50488 33.7907 5.59375 34.1758 5.77148C34.5651 5.94499 34.8952 6.19043 35.166 6.50781C35.4411 6.82096 35.6506 7.19124 35.7944 7.61865C35.9383 8.04183 36.0103 8.50098 36.0103 8.99609V9.14209C36.0103 9.63721 35.9383 10.0964 35.7944 10.5195C35.6506 10.9427 35.4411 11.313 35.166 11.6304C34.8952 11.9435 34.5672 12.189 34.1821 12.3667C33.8013 12.5402 33.3696 12.627 32.8872 12.627C32.4048 12.627 31.971 12.5402 31.5859 12.3667C31.2008 12.189 30.8708 11.9435 30.5957 11.6304C30.3249 11.313 30.1175 10.9427 29.9736 10.5195C29.8298 10.0964 29.7578 9.63721 29.7578 9.14209ZM30.9321 8.99609V9.14209C30.9321 9.48486 30.9723 9.80859 31.0527 10.1133C31.1331 10.4137 31.2537 10.6803 31.4146 10.9131C31.5796 11.1458 31.7848 11.3299 32.0303 11.4653C32.2757 11.5965 32.5614 11.6621 32.8872 11.6621C33.2088 11.6621 33.4902 11.5965 33.7314 11.4653C33.9769 11.3299 34.18 11.1458 34.3408 10.9131C34.5016 10.6803 34.6222 10.4137 34.7026 10.1133C34.7873 9.80859 34.8296 9.48486 34.8296 9.14209V8.99609C34.8296 8.65755 34.7873 8.33805 34.7026 8.0376C34.6222 7.73291 34.4995 7.46419 34.3345 7.23145C34.1737 6.99447 33.9705 6.80827 33.7251 6.67285C33.4839 6.53743 33.2004 6.46973 32.8745 6.46973C32.5529 6.46973 32.2694 6.53743 32.0239 6.67285C31.7827 6.80827 31.5796 6.99447 31.4146 7.23145C31.2537 7.46419 31.1331 7.73291 31.0527 8.0376C30.9723 8.33805 30.9321 8.65755 30.9321 8.99609ZM38.6572 7.09814V12.5H37.4829V5.63184H38.5938L38.6572 7.09814ZM38.3779 8.80566L37.8892 8.78662C37.8934 8.31689 37.9632 7.88314 38.0986 7.48535C38.234 7.08333 38.4245 6.73421 38.6699 6.43799C38.9154 6.14176 39.2074 5.91325 39.5459 5.75244C39.8887 5.5874 40.2674 5.50488 40.6821 5.50488C41.0207 5.50488 41.3254 5.55143 41.5962 5.64453C41.867 5.7334 42.0977 5.87728 42.2881 6.07617C42.4827 6.27507 42.6309 6.5332 42.7324 6.85059C42.834 7.16374 42.8848 7.54671 42.8848 7.99951V12.5H41.7041V7.98682C41.7041 7.62712 41.6512 7.33936 41.5454 7.12354C41.4396 6.90348 41.2852 6.74479 41.082 6.64746C40.8789 6.5459 40.6292 6.49512 40.333 6.49512C40.041 6.49512 39.7744 6.55648 39.5332 6.6792C39.2962 6.80192 39.091 6.97119 38.9175 7.18701C38.7482 7.40283 38.6149 7.65039 38.5176 7.92969C38.4245 8.20475 38.3779 8.49674 38.3779 8.80566ZM51.6255 3.20703V12.5H50.4512V4.67334L48.0835 5.53662V4.47656L51.4414 3.20703H51.6255ZM55.2246 11.8779C55.2246 11.679 55.286 11.5119 55.4087 11.3765C55.5356 11.2368 55.7176 11.167 55.9546 11.167C56.1916 11.167 56.3714 11.2368 56.4941 11.3765C56.6211 11.5119 56.6846 11.679 56.6846 11.8779C56.6846 12.0726 56.6211 12.2376 56.4941 12.373C56.3714 12.5085 56.1916 12.5762 55.9546 12.5762C55.7176 12.5762 55.5356 12.5085 55.4087 12.373C55.286 12.2376 55.2246 12.0726 55.2246 11.8779ZM64.3081 7.14258V8.55176C64.3081 9.30924 64.2404 9.94824 64.105 10.4688C63.9696 10.9893 63.7749 11.4082 63.521 11.7256C63.2671 12.043 62.9603 12.2736 62.6006 12.4175C62.2451 12.5571 61.8431 12.627 61.3945 12.627C61.0391 12.627 60.7111 12.5825 60.4106 12.4937C60.1102 12.4048 59.8394 12.263 59.5981 12.0684C59.3612 11.8695 59.158 11.6113 58.9888 11.2939C58.8195 10.9766 58.6904 10.5915 58.6016 10.1387C58.5127 9.68587 58.4683 9.1569 58.4683 8.55176V7.14258C58.4683 6.38509 58.536 5.75033 58.6714 5.23828C58.811 4.72624 59.0078 4.31576 59.2617 4.00684C59.5156 3.69368 59.8203 3.4694 60.1758 3.33398C60.5355 3.19857 60.9375 3.13086 61.3818 3.13086C61.7415 3.13086 62.0716 3.17529 62.3721 3.26416C62.6768 3.3488 62.9476 3.48633 63.1846 3.67676C63.4215 3.86296 63.6226 4.11263 63.7876 4.42578C63.9569 4.7347 64.0859 5.11344 64.1748 5.56201C64.2637 6.01058 64.3081 6.53743 64.3081 7.14258ZM63.1274 8.74219V6.9458C63.1274 6.53109 63.1021 6.16715 63.0513 5.854C63.0047 5.53662 62.9349 5.26579 62.8418 5.0415C62.7487 4.81722 62.6302 4.63525 62.4863 4.49561C62.3467 4.35596 62.1838 4.25439 61.9976 4.19092C61.8156 4.12321 61.6104 4.08936 61.3818 4.08936C61.1025 4.08936 60.855 4.14225 60.6392 4.24805C60.4233 4.34961 60.2414 4.51253 60.0933 4.73682C59.9494 4.9611 59.8394 5.25521 59.7632 5.61914C59.687 5.98307 59.6489 6.42529 59.6489 6.9458V8.74219C59.6489 9.1569 59.6722 9.52295 59.7188 9.84033C59.7695 10.1577 59.8436 10.4328 59.9409 10.6655C60.0382 10.894 60.1567 11.0824 60.2964 11.2305C60.436 11.3786 60.5968 11.4886 60.7788 11.5605C60.965 11.6283 61.1702 11.6621 61.3945 11.6621C61.6823 11.6621 61.9341 11.6071 62.1499 11.4971C62.3657 11.387 62.5456 11.2157 62.6895 10.9829C62.8376 10.7459 62.9476 10.4434 63.0195 10.0752C63.0915 9.7028 63.1274 9.25846 63.1274 8.74219ZM71.8745 11.5352V12.5H65.8252V11.6558L68.853 8.28516C69.2254 7.87044 69.5132 7.51921 69.7163 7.23145C69.9237 6.93945 70.0675 6.6792 70.1479 6.45068C70.2326 6.21794 70.2749 5.98096 70.2749 5.73975C70.2749 5.43506 70.2114 5.15999 70.0845 4.91455C69.9618 4.66488 69.7798 4.46598 69.5386 4.31787C69.2974 4.16976 69.0054 4.0957 68.6626 4.0957C68.2521 4.0957 67.9093 4.17611 67.6343 4.33691C67.3634 4.49349 67.1603 4.71354 67.0249 4.99707C66.8895 5.2806 66.8218 5.60645 66.8218 5.97461H65.6475C65.6475 5.4541 65.7617 4.97803 65.9902 4.54639C66.2188 4.11475 66.5573 3.77197 67.0059 3.51807C67.4544 3.25993 68.0067 3.13086 68.6626 3.13086C69.2466 3.13086 69.7459 3.23454 70.1606 3.44189C70.5754 3.64502 70.8927 3.93278 71.1128 4.30518C71.3371 4.67334 71.4492 5.10498 71.4492 5.6001C71.4492 5.87093 71.4027 6.146 71.3096 6.42529C71.2207 6.70036 71.0959 6.97542 70.9351 7.25049C70.7785 7.52555 70.5944 7.79639 70.3828 8.06299C70.1755 8.32959 69.9533 8.59196 69.7163 8.8501L67.2407 11.5352H71.8745ZM73.2773 11.8779C73.2773 11.679 73.3387 11.5119 73.4614 11.3765C73.5884 11.2368 73.7703 11.167 74.0073 11.167C74.2443 11.167 74.4242 11.2368 74.5469 11.3765C74.6738 11.5119 74.7373 11.679 74.7373 11.8779C74.7373 12.0726 74.6738 12.2376 74.5469 12.373C74.4242 12.5085 74.2443 12.5762 74.0073 12.5762C73.7703 12.5762 73.5884 12.5085 73.4614 12.373C73.3387 12.2376 73.2773 12.0726 73.2773 11.8779ZM78.0444 8.10107L77.105 7.85986L77.5684 3.25781H82.3101V4.34326H78.5649L78.2856 6.85693C78.4549 6.7596 78.6686 6.66862 78.9268 6.58398C79.1891 6.49935 79.4896 6.45703 79.8281 6.45703C80.2555 6.45703 80.6385 6.53109 80.9771 6.6792C81.3156 6.82308 81.6034 7.03044 81.8403 7.30127C82.0815 7.5721 82.2656 7.89795 82.3926 8.27881C82.5195 8.65967 82.583 9.08496 82.583 9.55469C82.583 9.99902 82.5216 10.4074 82.3989 10.7798C82.2804 11.1522 82.1006 11.478 81.8594 11.7573C81.6182 12.0324 81.3135 12.2461 80.9453 12.3984C80.5814 12.5508 80.1519 12.627 79.6567 12.627C79.2843 12.627 78.931 12.5762 78.5967 12.4746C78.2666 12.3688 77.9704 12.2101 77.708 11.9985C77.4499 11.7827 77.2383 11.5161 77.0732 11.1987C76.9124 10.8771 76.8109 10.5005 76.7686 10.0688H77.8857C77.9365 10.4159 78.0381 10.7078 78.1904 10.9448C78.3428 11.1818 78.5417 11.3617 78.7871 11.4844C79.0368 11.6029 79.3267 11.6621 79.6567 11.6621C79.936 11.6621 80.1836 11.6134 80.3994 11.5161C80.6152 11.4188 80.7972 11.2791 80.9453 11.0972C81.0934 10.9152 81.2056 10.6951 81.2817 10.437C81.3621 10.1789 81.4023 9.889 81.4023 9.56738C81.4023 9.27539 81.3621 9.00456 81.2817 8.75488C81.2013 8.50521 81.0807 8.28727 80.9199 8.10107C80.7633 7.91488 80.5708 7.771 80.3423 7.66943C80.1138 7.56364 79.8514 7.51074 79.5552 7.51074C79.1616 7.51074 78.8633 7.56364 78.6602 7.66943C78.4613 7.77523 78.256 7.91911 78.0444 8.10107ZM88.3784 3.24512H88.48V4.2417H88.3784C87.7563 4.2417 87.2358 4.34326 86.8169 4.54639C86.3979 4.74528 86.0658 5.014 85.8203 5.35254C85.5749 5.68685 85.3971 6.06348 85.2871 6.48242C85.1813 6.90137 85.1284 7.32666 85.1284 7.7583V9.1167C85.1284 9.52718 85.1771 9.89111 85.2744 10.2085C85.3717 10.5216 85.505 10.7861 85.6743 11.002C85.8436 11.2178 86.034 11.3807 86.2456 11.4907C86.4614 11.6007 86.6857 11.6558 86.9185 11.6558C87.1893 11.6558 87.4305 11.605 87.6421 11.5034C87.8537 11.3976 88.0314 11.2516 88.1753 11.0654C88.3234 10.875 88.4355 10.6507 88.5117 10.3926C88.5879 10.1344 88.626 9.85091 88.626 9.54199C88.626 9.26693 88.5921 9.00244 88.5244 8.74854C88.4567 8.4904 88.353 8.26188 88.2134 8.06299C88.0737 7.85986 87.8981 7.70117 87.6865 7.58691C87.4792 7.46842 87.2316 7.40918 86.9438 7.40918C86.618 7.40918 86.3133 7.48958 86.0298 7.65039C85.7505 7.80697 85.5199 8.01432 85.3379 8.27246C85.1602 8.52637 85.0586 8.80355 85.0332 9.104L84.4111 9.09766C84.4704 8.6237 84.5804 8.21956 84.7412 7.88525C84.9062 7.54671 85.1094 7.27165 85.3506 7.06006C85.596 6.84424 85.869 6.68766 86.1694 6.59033C86.4741 6.48877 86.7957 6.43799 87.1343 6.43799C87.5955 6.43799 87.9933 6.52474 88.3276 6.69824C88.6619 6.87174 88.937 7.10449 89.1528 7.39648C89.3687 7.68424 89.5273 8.01009 89.6289 8.37402C89.7347 8.73372 89.7876 9.104 89.7876 9.48486C89.7876 9.92074 89.7262 10.3291 89.6035 10.71C89.4808 11.0908 89.2967 11.4251 89.0513 11.7129C88.8101 12.0007 88.5117 12.2249 88.1562 12.3857C87.8008 12.5465 87.3882 12.627 86.9185 12.627C86.4191 12.627 85.9832 12.5254 85.6108 12.3223C85.2384 12.1149 84.9295 11.8398 84.6841 11.4971C84.4386 11.1543 84.2546 10.7734 84.1318 10.3545C84.0091 9.93555 83.9478 9.51025 83.9478 9.07861V8.52637C83.9478 7.87467 84.0133 7.23568 84.1445 6.60938C84.2757 5.98307 84.5021 5.41602 84.8237 4.9082C85.1496 4.40039 85.6003 3.99626 86.1758 3.6958C86.7513 3.39535 87.4855 3.24512 88.3784 3.24512Z" fill="#BFBFBF"/>
</g>
<defs>
<clipPath id="clip0_2720_2676">
<rect width="603" height="192" fill="white"/>
</clipPath>
</defs>
</svg>
