<svg width="21" height="20" viewBox="0 0 21 20" fill="none" xmlns="http://www.w3.org/2000/svg">
<path d="M16.0535 5.01557C15.0023 4.5343 13.8926 4.19287 12.7526 4C12.5966 4.27886 12.4555 4.56577 12.3298 4.85952C11.1155 4.67655 9.88067 4.67655 8.66641 4.85952C8.54064 4.5658 8.39949 4.27889 8.24357 4C7.10289 4.1945 5.9924 4.53674 4.94013 5.01809C2.8511 8.10885 2.28479 11.1228 2.56794 14.094C3.79133 14.9979 5.16066 15.6854 6.61639 16.1265C6.94417 15.6856 7.23423 15.2179 7.48346 14.7283C7.01007 14.5515 6.55317 14.3334 6.11804 14.0764C6.23256 13.9934 6.34456 13.9078 6.45279 13.8247C7.71891 14.4202 9.10083 14.7289 10.5 14.7289C11.8991 14.7289 13.281 14.4202 14.5472 13.8247C14.6566 13.9141 14.7686 13.9997 14.8819 14.0764C14.4459 14.3338 13.9882 14.5523 13.514 14.7296C13.7629 15.2189 14.053 15.6862 14.381 16.1265C15.838 15.6871 17.2084 15 18.432 14.0953C18.7642 10.6497 17.8644 7.66336 16.0535 5.01557ZM7.84212 12.2668C7.05307 12.2668 6.40119 11.5507 6.40119 10.6698C6.40119 9.78888 7.03042 9.06653 7.8396 9.06653C8.64879 9.06653 9.29563 9.78888 9.28179 10.6698C9.26795 11.5507 8.64627 12.2668 7.84212 12.2668ZM13.1578 12.2668C12.3675 12.2668 11.7182 11.5507 11.7182 10.6698C11.7182 9.78888 12.3474 9.06653 13.1578 9.06653C13.9683 9.06653 14.6101 9.78888 14.5962 10.6698C14.5824 11.5507 13.962 12.2668 13.1578 12.2668Z" fill="#DFDFDF"/>
</svg>
