<svg width="129" height="128" viewBox="0 0 129 128" fill="none" xmlns="http://www.w3.org/2000/svg">
<g clip-path="url(#clip0_2720_1979)">
<path fill-rule="evenodd" clip-rule="evenodd" d="M128.5 82.2035C127.819 82.278 127.115 82.3186 126.376 82.3186C123.193 82.3186 120.613 79.7282 120.613 76.5315C120.613 73.3349 123.193 70.7445 126.376 70.7445C109.009 58.7741 109.319 82.3186 91.0214 82.3186C87.8381 82.3186 85.2583 79.7282 85.2583 76.5315C85.2583 73.3349 87.8381 70.7445 91.0214 70.7445C73.6544 58.7741 73.9647 82.3153 55.6669 82.3153C52.4835 82.3153 49.9038 79.7248 49.9038 76.5282C49.9038 73.3315 52.4835 70.7411 55.6669 70.7411C38.2999 58.7707 38.6101 82.3153 20.3124 82.3153C17.129 82.3153 14.5492 79.7248 14.5492 76.5282C14.5492 73.3315 17.129 70.7411 20.3124 70.7411C10.5194 63.9923 6.34795 68.5332 1.29297 73.7785V101.939H128.5V82.1967V82.2035Z" fill="url(#paint0_linear_2720_1979)"/>
<path fill-rule="evenodd" clip-rule="evenodd" d="M128.234 61.7583C128.19 61.7583 128.146 61.7583 128.103 61.7583C124.919 61.7583 122.339 59.1678 122.339 55.9712C122.339 52.7745 124.919 50.1841 128.103 50.1841C110.735 38.2137 111.046 61.7583 92.748 61.7583C89.5646 61.7583 86.9848 59.1678 86.9848 55.9712C86.9848 52.7745 89.5646 50.1841 92.748 50.1841C75.381 38.2137 75.6912 61.7549 57.3935 61.7549C54.2101 61.7549 51.6303 59.1644 51.6303 55.9678C51.6303 52.7712 54.2101 50.1807 57.3935 50.1807C40.0264 38.2103 40.3367 61.7549 22.0389 61.7549C18.8555 61.7549 16.2758 59.1644 16.2758 55.9678C16.2758 52.7712 18.8555 50.1807 22.0389 50.1807C10.6812 42.3517 6.88409 49.7134 0.49707 55.7477V81.3815H128.234V61.7515V61.7583Z" fill="url(#paint1_linear_2720_1979)"/>
<path d="M92.785 81.9875C92.785 81.9875 109.053 63.7729 100.433 47.6172C83.771 39.5376 67.4191 54.3287 67.4191 54.3287C67.4191 54.3287 70.2888 57.6032 72.9664 60.3765C75.644 63.1499 77.7752 65.6218 77.7752 65.6218L73.8702 69.4246C69.2435 65.4457 63.9794 62.4557 59.4033 61.6701C59.4033 61.6701 57.3799 66.0857 57.3799 66.6309C59.5011 67.1084 64.148 70.0849 68.8961 74.2703L65.072 77.9952C61.2917 74.7816 57.0629 72.6313 53.576 72.8515C53.3467 73.3933 51.6977 76.8642 51.6977 76.8642C54.7226 78.0595 57.7138 80.142 60.4082 82.5361L55.3363 87.4766C43.8842 84.9132 32.2871 93.4771 32.2871 93.4771L42.3027 96.843C46.4674 95.9998 50.6456 95.8 54.6619 96.5315C52.8679 97.5101 51.0974 98.5395 49.3641 99.6197L54.8103 115.985C54.8103 115.985 63.6489 104.025 60.8432 92.7727L65.5643 87.8525C68.5623 91.4284 70.6261 94.8485 71.0071 96.5552C71.4691 96.5552 75.0336 94.6995 75.0336 94.6995C75.0741 91.2489 73.044 87.0093 70.046 83.1829L73.9106 79.1566C77.212 82.7359 80.1021 86.7215 81.6263 90.6089C81.6263 90.6089 85.2987 89.3323 85.9326 89.058C85.8517 84.4595 82.9044 79.0144 78.6823 74.1856L82.2367 70.4811L92.7884 81.9875H92.785Z" fill="white"/>
<path d="M93.7222 61.4405L91.5059 53.1113L83.2111 55.3369L85.4275 63.6661L93.7222 61.4405Z" fill="#303030"/>
<path opacity="0.2" d="M58.2765 36.3C61.1949 36.3 63.5608 33.9243 63.5608 30.9937C63.5608 28.0632 61.1949 25.6875 58.2765 25.6875C55.358 25.6875 52.9922 28.0632 52.9922 30.9937C52.9922 33.9243 55.358 36.3 58.2765 36.3Z" fill="white"/>
<path d="M58.2762 32.5988C59.159 32.5988 59.8746 31.8802 59.8746 30.9938C59.8746 30.1073 59.159 29.3887 58.2762 29.3887C57.3934 29.3887 56.6777 30.1073 56.6777 30.9938C56.6777 31.8802 57.3934 32.5988 58.2762 32.5988Z" fill="white"/>
<path opacity="0.2" d="M108.048 40.733C112.128 40.733 115.436 37.4113 115.436 33.3138C115.436 29.2162 112.128 25.8945 108.048 25.8945C103.967 25.8945 100.659 29.2162 100.659 33.3138C100.659 37.4113 103.967 40.733 108.048 40.733Z" fill="white"/>
<path d="M108.047 35.5585C109.282 35.5585 110.283 34.5534 110.283 33.3134C110.283 32.0735 109.282 31.0684 108.047 31.0684C106.813 31.0684 105.812 32.0735 105.812 33.3134C105.812 34.5534 106.813 35.5585 108.047 35.5585Z" fill="white"/>
<path opacity="0.2" d="M88.5696 29.531C90.4692 29.531 92.0092 27.9846 92.0092 26.077C92.0092 24.1694 90.4692 22.623 88.5696 22.623C86.6699 22.623 85.1299 24.1694 85.1299 26.077C85.1299 27.9846 86.6699 29.531 88.5696 29.531Z" fill="white"/>
<path d="M88.5694 27.1239C89.1449 27.1239 89.6114 26.6555 89.6114 26.0776C89.6114 25.4997 89.1449 25.0312 88.5694 25.0312C87.9939 25.0312 87.5273 25.4997 87.5273 26.0776C87.5273 26.6555 87.9939 27.1239 88.5694 27.1239Z" fill="white"/>
</g>
<defs>
<linearGradient id="paint0_linear_2720_1979" x1="64.8967" y1="101.945" x2="64.8967" y2="67.3548" gradientUnits="userSpaceOnUse">
<stop offset="0.18" stop-color="#999999" stop-opacity="0"/>
<stop offset="1" stop-color="#999999"/>
</linearGradient>
<linearGradient id="paint1_linear_2720_1979" x1="64.3672" y1="81.3849" x2="64.3672" y2="46.7944" gradientUnits="userSpaceOnUse">
<stop offset="0.18" stop-color="#999999" stop-opacity="0"/>
<stop offset="1" stop-color="#999999"/>
</linearGradient>
<clipPath id="clip0_2720_1979">
<rect width="128" height="128" fill="white" transform="translate(0.5)"/>
</clipPath>
</defs>
</svg>
