<svg width="24" height="24" viewBox="0 0 24 24" fill="none" xmlns="http://www.w3.org/2000/svg">
<path fill-rule="evenodd" clip-rule="evenodd" d="M4.42544 12.7014C3.19348 7.77358 6.92058 3 12.0001 3C17.0796 3 20.8067 7.77358 19.5747 12.7014L18.7444 16.0229C18.4892 17.0434 17.8481 17.8862 17.0002 18.4115V21H15.0002V18.9994C14.9773 18.9998 14.9544 19 14.9314 19H13.0002V21H11.0002V19H9.06881C9.04591 19 9.02305 18.9998 9.00023 18.9994V21H7.00023V18.4117C6.1522 17.8864 5.51097 17.0435 5.25581 16.0229L4.42544 12.7014ZM8.00058 13C9.10515 13 10.0006 12.1046 10.0006 11C10.0006 9.89543 9.10515 9 8.00058 9C6.89601 9 6.00058 9.89543 6.00058 11C6.00058 12.1046 6.89601 13 8.00058 13ZM16.0006 13C17.1051 13 18.0006 12.1046 18.0006 11C18.0006 9.89543 17.1051 9 16.0006 9C14.896 9 14.0006 9.89543 14.0006 11C14.0006 12.1046 14.896 13 16.0006 13ZM12 12L13.5 15H10.5L12 12Z" fill="#9F9F9F"/>
</svg>
