<svg width="24" height="24" viewBox="0 0 24 24" fill="none" xmlns="http://www.w3.org/2000/svg">
<path d="M11.9997 8.89679L9.75521 6.8597L11.7731 4.84776L9.64775 2.72239L7.12835 5.24776L3.88059 2L2 3.88059L5.24776 7.12835L2.72239 9.64775L4.84776 11.7731L6.8597 9.75521L8.75334 11.8424L2 17.9701L2.37015 21.6298L6.02985 22L15.2477 11.8448L15.2459 11.843L17.1403 9.75521L19.1522 11.7731L21.2776 9.64775L18.7582 7.12835L22 3.88059L20.1194 2L16.8776 5.24776L14.3522 2.72239L12.2269 4.84776L14.2448 6.8597L11.9997 8.89679Z" fill="#9F9F9F"/>
<path d="M15.7012 12.2567L14.9907 18.7164L17.9698 22L21.6295 21.6299L21.9997 17.9702L15.7012 12.2567Z" fill="#9F9F9F"/>
</svg>
