<svg width="24" height="24" viewBox="0 0 24 24" fill="none" xmlns="http://www.w3.org/2000/svg">
<path d="M10.0003 3.00001L10.6113 3.56002L6.29725 7.87403L13.5399 10.2882L14.9997 8.82843L18.1713 12H19.8186L22.0004 14L22.0003 16L14 20V17.1716L8.82843 12H5.67157L3.9324 13.7392L2 12V9L6.99989 3L10.0003 3.00001Z" fill="#9F9F9F"/>
<path d="M6.5 14H8L12 18V19.5L10.5 21H9L5 17V15.5L6.5 14Z" fill="#9F9F9F"/>
<path d="M12.9998 7.99993L15 6L19 10H21V8L16 3H14L9.99971 7L12.9998 7.99993Z" fill="#9F9F9F"/>
</svg>
