<svg width="142" height="90" viewBox="0 0 142 90" fill="none" xmlns="http://www.w3.org/2000/svg">
<g clip-path="url(#clip0_2720_7373)">
<path d="M110.5 46.4839C110.561 46.4839 91.1559 35.532 91.0989 35.2099C90.6601 32.8821 90.1071 29.0382 87.4302 27.0497C85.1263 25.3533 69.574 18.3527 69.5433 18.2796C66.6797 14.0434 64.1421 9.60465 61.9514 5C59.871 6.53247 58.1789 8.51304 57.0062 10.7883C55.8335 13.0636 55.2117 15.5725 55.1889 18.1207C47.5491 19.1923 40.3786 22.3697 34.5153 27.2816C49.721 23.8715 54.1006 27.0154 54.1006 27.0154C49.1223 27.8833 44.3253 29.5522 39.9043 31.9544C33.4226 35.4418 30.5 39.6293 30.5 39.6293C30.5 39.6293 45.2186 35.5106 56.5142 39.5176C51.2467 40.2449 46.3503 42.5875 42.5285 46.209C65.9404 49.0479 77.4862 68.933 82.3441 85C84.1302 56.4221 69.5915 45.5691 69.5915 45.5691C73.8131 45.8654 79.1231 49.078 82.5196 53.8581C92.8762 52.7157 98.6425 55.8209 98.5942 55.8209C98.4801 55.8209 104.194 54.1029 108.222 52.2862C107.876 51.7751 106.419 50.0014 105.589 49.0092C105.703 49.0178 108.889 48.8332 110.5 46.4839ZM78.162 33.8356C78.3902 33.7797 83.4631 32.3839 84.9113 32.9208C86.2278 33.4061 86.2542 37.0739 86.2542 37.0739C86.2542 37.0739 83.2481 37.4862 78.162 33.8356Z" fill="#404040"/>
</g>
<path d="M22.8828 82.069H18.4159C17.893 82.161 17.3591 82.04 16.9034 81.7261C16.4477 81.4123 16.0978 80.9247 15.9124 80.3449C15.559 78.6148 15.6179 76.5452 15.6179 75.0575V57.0692C15.6668 55.1025 15.3659 53.1454 14.7343 51.3221C14.3228 49.8547 13.6541 48.504 12.7709 47.3566C12.0306 46.3391 11.1712 45.4491 10.2183 44.7129C11.0517 44.108 12.19 43.3513 12.8199 42.4716C13.6591 41.3188 14.3082 39.9937 14.7343 38.5636C15.3526 36.7358 15.653 34.782 15.6179 32.8165V14.9431C15.6179 13.5501 15.4126 11.1041 15.6179 9.19599C16.1579 7.70175 17.1887 7.87413 18.1705 7.81666H22.8828V0.000617724H15.3234C14.1956 -0.0143654 13.0772 0.243367 12.0383 0.757589C10.9994 1.27181 10.0623 2.03148 9.28565 2.98913C7.69688 5.35866 6.87917 8.3122 6.97855 11.3224V30.4027C7.0495 33.0694 6.50702 35.7094 5.4078 38.0464C4.84632 38.9682 4.11195 39.7271 3.26106 40.265C2.41018 40.803 1.46537 41.1056 0.499086 41.1498V48.9084C1.46229 48.8707 2.41789 49.1197 3.27642 49.6324C4.13495 50.145 4.86831 50.9044 5.4078 51.8394C6.5589 54.1334 7.12129 56.7672 7.02769 59.4256V78.7358C6.93326 81.6924 7.75236 84.5898 9.33479 86.8966C10.0972 87.868 11.0225 88.645 12.0529 89.1789C13.0833 89.7129 14.1966 89.9924 15.3234 90H22.8828V82.069Z" fill="#404040"/>
<path d="M118.5 82.069H122.967C123.49 82.161 124.024 82.04 124.479 81.7261C124.935 81.4123 125.285 80.9247 125.47 80.3449C125.824 78.6148 125.765 76.5452 125.765 75.0575V57.0692C125.716 55.1025 126.017 53.1454 126.648 51.3221C127.06 49.8547 127.729 48.504 128.612 47.3566C129.352 46.3391 130.212 45.4491 131.164 44.7129C130.331 44.108 129.193 43.3513 128.563 42.4716C127.724 41.3188 127.075 39.9937 126.648 38.5636C126.03 36.7358 125.73 34.782 125.765 32.8165V14.9431C125.765 13.5501 125.97 11.1041 125.765 9.19599C125.225 7.70175 124.194 7.87413 123.212 7.81666H118.5V0.000617724H126.059C127.187 -0.0143654 128.306 0.243367 129.345 0.757589C130.383 1.27181 131.321 2.03148 132.097 2.98913C133.686 5.35866 134.504 8.3122 134.404 11.3224V30.4027C134.333 33.0694 134.876 35.7094 135.975 38.0464C136.536 38.9682 137.271 39.7271 138.122 40.265C138.973 40.803 139.917 41.1056 140.884 41.1498V48.9084C139.921 48.8707 138.965 49.1197 138.106 49.6324C137.248 50.145 136.514 50.9044 135.975 51.8394C134.824 54.1334 134.262 56.7672 134.355 59.4256V78.7358C134.45 81.6924 133.63 84.5898 132.048 86.8966C131.286 87.868 130.36 88.645 129.33 89.1789C128.3 89.7129 127.186 89.9924 126.059 90H118.5V82.069Z" fill="#404040"/>
<defs>
<clipPath id="clip0_2720_7373">
<rect width="80" height="80" fill="white" transform="translate(30.5 5)"/>
</clipPath>
</defs>
</svg>
