<svg width="200" height="200" viewBox="0 0 200 200" fill="none" xmlns="http://www.w3.org/2000/svg">
<g clip-path="url(#clip0_2720_2642)">
<path fill-rule="evenodd" clip-rule="evenodd" d="M99.9991 29.9401C78.5331 30.0877 58.761 40.3983 45.9453 55.6886L22.8223 36.5269C41.057 14.7713 69.34 0.210816 99.9991 0V29.9401Z" fill="#606060"/>
<path fill-rule="evenodd" clip-rule="evenodd" d="M45.9458 55.689C36.2397 67.7053 30.0299 83.361 30.0299 100C30.0299 138.528 61.1204 169.795 99.6993 170.06V200C44.628 199.622 0 154.994 0 100C0 76.285 8.97492 53.6712 22.8227 36.5273L45.9458 55.689Z" fill="#9F9F9F"/>
<path fill-rule="evenodd" clip-rule="evenodd" d="M169.969 99.9979C169.969 61.4701 138.578 30.2054 99.9995 29.9401V0C155.071 0.378677 199.999 45.0038 199.999 99.9979C199.999 154.992 154.771 199.621 99.6992 200V170.06C138.278 169.795 169.969 138.526 169.969 99.9979Z" fill="#404040"/>
</g>
<defs>
<clipPath id="clip0_2720_2642">
<rect width="200" height="200" fill="white"/>
</clipPath>
</defs>
</svg>
