<svg width="20" height="20" viewBox="0 0 20 20" fill="none" xmlns="http://www.w3.org/2000/svg">
<path d="M8.10137 2L7.70066 4.01875C7.03243 4.26704 6.41456 4.61392 5.87199 5.05156L3.89863 4.38281L2 7.61719L3.57901 8.96563C3.52302 9.30319 3.48678 9.6469 3.48678 10C3.48678 10.3531 3.52302 10.6968 3.57901 11.0344L2 12.3828L3.89863 15.6172L5.87199 14.9484C6.41456 15.3861 7.03243 15.733 7.70066 15.9812L8.10137 18H11.8986L12.2993 15.9812C12.9676 15.733 13.5854 15.3861 14.128 14.9484L16.1014 15.6172L18 12.3828L16.421 11.0344C16.477 10.6968 16.5132 10.3531 16.5132 10C16.5132 9.6469 16.477 9.30319 16.421 8.96563L18 7.61719L16.1014 4.38281L14.128 5.05156C13.5854 4.61392 12.9676 4.26704 12.2993 4.01875L11.8986 2H8.10137ZM10 6.8C11.7985 6.8 13.2566 8.2328 13.2566 10C13.2566 11.7672 11.7985 13.2 10 13.2C8.20154 13.2 6.74339 11.7672 6.74339 10C6.74339 8.2328 8.20154 6.8 10 6.8Z" fill="#FFFFFF"/>
</svg>
