<svg width="20" height="20" viewBox="0 0 20 20" fill="none" xmlns="http://www.w3.org/2000/svg">
<path d="M9.23645 12C9.24056 11.5797 9.27545 11.2361 9.34113 10.969C9.41092 10.6976 9.52176 10.4503 9.67365 10.227C9.82964 10.0038 10.0369 9.74984 10.2956 9.46529C10.4844 9.25954 10.6589 9.06692 10.819 8.88743C10.9791 8.70356 11.1084 8.50657 11.2069 8.29644C11.3054 8.0863 11.3547 7.83021 11.3547 7.52814C11.3547 7.07286 11.2418 6.71388 11.016 6.45122C10.7902 6.18418 10.4639 6.05066 10.0369 6.05066C9.6798 6.05066 9.35961 6.15791 9.07635 6.37242C8.7931 6.58255 8.65148 6.91526 8.65148 7.37054H7.5C7.50821 6.87586 7.62315 6.45122 7.84483 6.09662C8.07061 5.74203 8.37438 5.47061 8.75616 5.28236C9.13793 5.09412 9.56486 5 10.0369 5C10.821 5 11.4265 5.22326 11.8534 5.66979C12.2845 6.11632 12.5 6.72483 12.5 7.49531C12.5 7.88931 12.4261 8.25266 12.2783 8.58537C12.1305 8.9137 11.9397 9.22233 11.7057 9.51126C11.4717 9.80019 11.2233 10.076 10.9606 10.3386C10.7348 10.5575 10.5829 10.8093 10.5049 11.0938C10.4269 11.374 10.3879 11.676 10.3879 12H9.23645Z" fill="#9F9F9F"/>
<path d="M9.84961 15C10.2638 15 10.5996 14.6642 10.5996 14.25C10.5996 13.8358 10.2638 13.5 9.84961 13.5C9.4354 13.5 9.09961 13.8358 9.09961 14.25C9.09961 14.6642 9.4354 15 9.84961 15Z" fill="#9F9F9F"/>
<path fill-rule="evenodd" clip-rule="evenodd" d="M10 18C14.4183 18 18 14.4183 18 10C18 5.58172 14.4183 2 10 2C5.58172 2 2 5.58172 2 10C2 14.4183 5.58172 18 10 18ZM10 17C13.866 17 17 13.866 17 10C17 6.13401 13.866 3 10 3C6.13401 3 3 6.13401 3 10C3 13.866 6.13401 17 10 17Z" fill="#9F9F9F"/>
</svg>
