<svg width="611" height="384" viewBox="0 0 611 384" fill="none" xmlns="http://www.w3.org/2000/svg">
<rect width="611" height="384" fill="#404040"/>
<path d="M257.5 56L145.5 248L465.5 248L401.5 152L354.567 222.4L257.5 56Z" fill="#303030"/>
<path d="M354.3 107.2C368.439 107.2 379.9 95.7385 379.9 81.6C379.9 67.4615 368.439 56 354.3 56C340.162 56 328.7 67.4615 328.7 81.6C328.7 95.7385 340.162 107.2 354.3 107.2Z" fill="#303030"/>
<path d="M162 318.897L159.755 316.86L161.773 314.848L159.648 312.722L157.128 315.248L153.881 312L152 313.881L155.248 317.128L152.722 319.648L154.848 321.773L156.86 319.755L158.753 321.842L152 327.97L152.37 331.63L156.03 332L165.248 321.845L165.246 321.843L167.14 319.755L169.152 321.773L171.278 319.648L168.758 317.128L172 313.881L170.119 312L166.878 315.248L164.352 312.722L162.227 314.848L164.245 316.86L162 318.897Z" fill="#BFBFBF"/>
<path d="M165.701 322.257L164.991 328.716L167.97 332L171.63 331.63L172 327.97L165.701 322.257Z" fill="#BFBFBF"/>
<rect x="160" y="338" width="4" height="16" fill="#606060"/>
<path d="M276 318.897L273.755 316.86L275.773 314.848L273.648 312.722L271.128 315.248L267.881 312L266 313.881L269.248 317.128L266.722 319.648L268.848 321.773L270.86 319.755L272.753 321.842L266 327.97L266.37 331.63L270.03 332L279.248 321.845L279.246 321.843L281.14 319.755L283.152 321.773L285.278 319.648L282.758 317.128L286 313.881L284.119 312L280.878 315.248L278.352 312.722L276.227 314.848L278.245 316.86L276 318.897Z" fill="#BFBFBF"/>
<path d="M279.701 322.257L278.991 328.716L281.97 332L285.63 331.63L286 327.97L279.701 322.257Z" fill="#BFBFBF"/>
<rect x="274" y="338" width="4" height="16" fill="#606060"/>
<path d="M322 313L322.611 313.56L318.297 317.874L325.54 320.288L327 318.828L330.171 322H331.819L334 324L334 326L326 330V327.172L320.828 322H317.672L315.932 323.739L314 322V319L319 313L322 313Z" fill="#BFBFBF"/>
<path d="M318.5 324H320L324 328V329.5L322.5 331H321L317 327V325.5L318.5 324Z" fill="#BFBFBF"/>
<path d="M325 318L327 316L331 320H333V318L328 313H326L322 317L325 318Z" fill="#BFBFBF"/>
<rect x="322" y="338" width="4" height="16" fill="#606060"/>
<path fill-rule="evenodd" clip-rule="evenodd" d="M416.424 322.701C415.193 317.774 418.92 313 423.999 313C429.079 313 432.806 317.774 431.574 322.701L430.743 326.023C430.488 327.043 429.847 327.886 428.999 328.412V331H426.999V328.999C426.976 329 426.953 329 426.93 329H424.999V331H422.999V329H421.068C421.045 329 421.022 329 420.999 328.999V331H418.999V328.412C418.151 327.886 417.51 327.044 417.255 326.023L416.424 322.701ZM420 323C421.104 323 422 322.105 422 321C422 319.895 421.104 319 420 319C418.895 319 418 319.895 418 321C418 322.105 418.895 323 420 323ZM428 323C429.104 323 430 322.105 430 321C430 319.895 429.104 319 428 319C426.895 319 426 319.895 426 321C426 322.105 426.895 323 428 323ZM423.999 322L425.499 325H422.499L423.999 322Z" fill="#BFBFBF"/>
<rect x="422" y="338" width="4" height="16" fill="#606060"/>
<path d="M30 348H26V364H30V348Z" fill="#BFBFBF"/>
<path d="M38 348H34V364H38V348Z" fill="#BFBFBF"/>
<rect x="60" y="354" width="531" height="4" fill="#202020"/>
<rect x="60" y="354" width="103" height="4" fill="#BFBFBF"/>
<rect x="156" y="350" width="12" height="12" rx="6" fill="#404040"/>
<rect x="156" y="350" width="12" height="12" rx="6" stroke="#DFDFDF" stroke-width="4"/>
</svg>
