<svg width="20" height="20" viewBox="0 0 20 20" fill="none" xmlns="http://www.w3.org/2000/svg">
<path fill-rule="evenodd" clip-rule="evenodd" d="M10 18C14.4183 18 18 14.4183 18 10C18 5.58172 14.4183 2 10 2C5.58172 2 2 5.58172 2 10C2 14.4183 5.58172 18 10 18ZM10 7C9.44676 7 9 7.44964 9 7.99052H7C7 6.33273 8.35457 5 10 5H10.0953C11.6995 5 13 6.30047 13 7.90468C13 8.96586 12.4213 9.94259 11.4906 10.4523L10.8732 10.7904C10.7972 10.832 10.75 10.9117 10.75 10.9984V12.1611H8.75V10.9984C8.75 10.1811 9.19569 9.42883 9.91252 9.03626L10.5299 8.69816C10.8198 8.5394 11 8.23519 11 7.90468C11 7.40504 10.595 7 10.0953 7H10ZM8.75 13.109H10.75V15.0047H8.75V13.109Z" fill="#9F9F9F"/>
</svg>
