<svg width="20" height="20" viewBox="0 0 20 20" fill="none" xmlns="http://www.w3.org/2000/svg">
<path d="M14.6174 13.8959L17.2929 16.5714L16.5714 17.2929L14.5869 15.3083L14.1441 14.8656L13.8103 15.3953C13.2742 16.2461 12.4617 16.9042 11.5 17.2441L11.5 7.5H13.5714H13.7785L13.925 7.35355L16.5714 4.70711L17.2929 5.42857L14.6464 8.07502L14.5 8.22147V8.42857V10V10.5H15H17.5V11.5H15H14.5V12V13C14.5 13.1653 14.4911 13.3284 14.4738 13.4887L14.4481 13.7267L14.6174 13.8959ZM5 10.5H5.5V10V8.42857V8.22147L5.35355 8.07502L2.70711 5.42857L3.42857 4.70711L6.07502 7.35355L6.22147 7.5H6.42857H8.5L8.5 17.2441C7.53834 16.9042 6.72578 16.2461 6.18971 15.3953L5.8559 14.8656L5.41314 15.3083L3.42857 17.2929L2.70711 16.5714L5.38263 13.8959L5.55186 13.7267L5.52619 13.4887C5.50889 13.3284 5.5 13.1653 5.5 13V12V11.5H5H2.5V10.5H5ZM10 2.5C11.2095 2.5 12.2184 3.35888 12.45 4.5H7.55001C7.78164 3.35888 8.79052 2.5 10 2.5Z" fill="#9F9F9F" stroke="#9F9F9F"/>
</svg>
